<svg xmlns="http://www.w3.org/2000/svg" xml:space="preserve" id="Layer_1" x="0" y="0" style="enable-background:new 0 0 150.6 150.5" version="1.1" viewBox="0 0 150.6 150.5"><style>.st0{fill-rule:evenodd;clip-rule:evenodd;fill:#c5ab71}</style><path d="M128.1 109.8c-2.4-2.6-5.4-2.3-8.5-.8-8.5 4-22.7 1-26.7-8.7-.9-1.5-.6-3-.8-4.8-.3-2.8-.9-5.8-.1-8.5 1.4-5.5-.6-9 5.3-10.1 3.9-.7 3.4-1.2 7.2-2.3l-.1-.8c-5.7.9-3.8-.2-9.5.7l-.5-.8c4.6-3.6 1.3-5.8 6.3-8.7 2.6-1.5 6.4-1.1 9.7-.9 2.4.1 4.8 1 7.1 1.8 3.8 1.2 7.3.9 11.2-.1 3.3-.8 7.1.2 10 .4-2.5-1.6-6.1-3.2-10.1-2-3.8 1.2-7.2.7-10.8-.5-4.6-1.5-9.3-2.6-13.9-3.9 1.5-4 3.1-8.6 5.1-13.2 1.3-3.1 3.1-3.9 6.4-3 1.9.5 3.7 1.3 5.4 2.1 4 1.9 8.2 3 11.5 2.7l-15.7-6.1v-.8c6.3-2.2 12.1-4.9 15.4-11.1-5 5.6-11.3 8.3-18.6 9.2a8.8 8.8 0 0 0-6.7 4.8c-1.4 2.3-2.4 4.9-3.6 7.3l-1.8 2.9-.2.8c-1 4.1-4.6 5.7-7.1 8.4l-1-.4 1.8-5.3c.8-2.8 2.2-5.5 2.1-8.3-.1-3.9.1-7.4 3-10.2 1.5 1.2 1.5 1 3.5.8h.2a4 4 0 0 0 3.2-4.6c-.3-1.4-.4-2.8-.5-4.1l-3.6 1.5c-4.4 1.6-4.7 2.6-2.9 6.3a9.1 9.1 0 0 0-4.3 7.8c-.3 2.8-.7 5.6-1.3 8.3H93c-.8-3.8-2.1-7.5-2.3-11.2 0-2.3.8-4.5 2.3-6.2 3.1-3.7 7.4-6.2 12.1-7.2 2.9-.7 5.5-2.5 8-4.2 1.7.6 7.3 2.3 9.1-.4l3.6-5.4c-1.4-.4-3.4-.9-5.4-1.6-2.5-1-4.8-.1-5.6 2.1-.6 1.8-1.5 3.4-2.3 5.2l.3.1-12.2 4.5 3-19.6-.6-.7-1.4 5.9-1.3 6.9c-.7 4-3 7.5-6.4 9.8-2.3 1.6-4.2 3.7-6.4 5.6-6.6-4.8-7.6-8-5.1-16.2.8-2.8 1.4-5.6 1.6-8.5l-4 12-7.4-8.2c3.9 2.4 4.4-2 3.4-5.6l-2.8 3c-2.4 2.5-.3 4.5 1.2 6.1 2.9 3.2 4.8 7.1 5.6 11.4.4 2.1 2.2 3.9 3.4 5.9 1.2 2.1 2.9 4.2 3.6 6.5 1.1 3.5 1.8 7 2 10.6.2 3.1-.5 6.3-.9 10-5.3-7.5-5.9-16.5-12.5-22.7l5 10.9c-11.2-4.5-16.1-6.3-17-14 2.2-.3 4.1-1.1 3.9-4.7l-4.1 2.6-4.5-12.4-.3-7.4c2.1.9 4.1 2 5.9-.3 2.7-3.5-.3-6.5-1.7-9.4-1.5.4-2.9 1-4.3 1.7-4.2 2.4-3.9 5.4-2.5 7.3.9.1 1.8.4 2.7.8-2 5.2 0 9.7.9 14.2l-.1-.1c.5 1.7 1.2 3.4 1.6 5.2l1.8 10.4c-4.2-.3-8-1.9-9.9-6.6-.7-1.7-1.6-3.3-2.4-5l.1.1c-2-2.3-3.9-4.7-6-6.9-1-.8-2-1.5-3.1-2.1l-2.6-.9c8 3.4 9.9 11.2 13.4 17.8l-.6.8-5.2-3.5.1.1c-3.9-3.2-7.9-6-13.4-5.1 5.4.3 9.3 3 12.9 6.9 1.9 2 4.9 3.1 7.6 4.2 5.3 2 10.7 3.7 16 5.7 2.1.8 4.1 1.8 6 2.9 7.2 4.4 8.8 12.7 4 19.7l-2.2 3.7c-2.1-3.3-4-6-5.6-8.9a19.6 19.6 0 0 0-8.2-8.4l-8.2-4.7c4 5.3 11.8 6.4 13.9 13.6-4.2-.8-8.3-1.2-12.1-2.6-2.2-.8-4-3.2-5.8-5-2-2.2-3.4-5.3-5.8-6.9-3.2-2-6.8-3.3-10.5-4.1-3.9-.8-7.1-2.1-9-6.4a7.6 7.6 0 0 0 5.2 6.6 73 73 0 0 0 5 1.6l-.5-.3c6.2 1 10 4.8 12.6 10.7-3.9 0-19.9-.4-23.4-1.2-3.6-.8-7.6-3.5-10.5-4.9 1.2 1.6 7.6 7.1 11 8 7.3 2 10.8 1.4 15.3 1.2 3.3-.1 9.1-.2 11.9 1.8 2.3 1.7 5.5 2.5 8.3 3.2 4 1 3.6 1.9 5.8 6 .7 1.3 5.6 3.5 5.7 4.9l.7 12 .3 5.2c.1 2.3-1.2 6.7-2.7 7-4.9.9-18.5 2.2-23.9.4-4.3-1.5-8.3-1.9-11.6.8-5.2 4.3-10.2 3.2-16 1-3.2-1.2-7-1.5-10.5-2.2v.4l17 6.5-8.8 3.7c2.2.2 4.4 0 6.5-.7 4.3-1.7 8.3-3.9 12.6-5.6 2.1-.8 4.6-1 7.9-1.7-3.4 3.2-6.2 5.2-8.2 7.8-2.2 2.9-12.9 5.7-16.7 5.6-2.8-.1-5.6.3-8.5.4l.1.5 12.7.8c-2.2 3.9-5.9 4.9-9.6 6.1-3.7 1.2-7 2.8-10.6 4.2l.3.5 17.3-5 1.3 1.1-4.4 6.3c2.1-1 5-2.4 5.3-4.1.8-5.2 12.4-10.7 15.6-14.6 4.4-5.3 19.4-7 26.9-5.5l6.2.2c-8.9 4.7-16.4 4.6-19.6 2.4-3.9-2.7-6.6 2-9.4 6.2 5.4-3.7 6.3-6.2 9.4-3.7-2.2 2-7.5 7.6-11.5 9.4.2.5 6.5-1.6 9.8-3.7 2.6-5.4 7.4-3.8 11.8-3.9 3.3-.1 6.6-1.3 10-2.1-5.8 6.6-11.6 12.7-20.8 10.9l.6 1.3h11.1c-1.6 4.6-6.5 8.8-7.9 12.6 2.6-1.8 7.5-5.3 8.3-9 .8-3.7 2.4-6.5 5.2-8.3A31.4 31.4 0 0 0 82 110.8c2 5 2.5 9.2.1 13-1.9 2.9-4.3 5.3-6.5 7.8a27.7 27.7 0 0 0-3.8 5.2l8.2-6.9 1.1.4c0 6.1-3.4 12.2-3.4 18.3.8-3.2 4.9-6.5 5.9-10.7 2.3 2.7.8 4.7 2.6 6.8h.3c-.9-1.7 1.9-3.7.7-5-5.2-5.7-5.2-6.8-2-14.1 1.7-3.9 2.2-8.5 3.2-12.2 3.9 5.5 6.3 12.3 2.3 20.5l2-4.5 2-5.4c6.2 6 1.2 13.2-1 20.5 1-2.1 4.6-2.9 5.5-5 4.8 3.3 2.6 2.9 1.3 7.3 4-3.3 3.3-4.7 1.4-6.8-4.4-5-.8-4.7-1.3-11.8 4.1.8 13.9.1 14.1 4.8.2 4-2.8 7.6 0 10.7 1.3 1.4 1.3 4.3 1.9 6.6a11 11 0 0 0-2-9.1c-1.1-1.5 2.1-4 1.3-6.7 3.7 4.8 4.1 4.2 7.4 6.1l.3-.6c-1.2-1-2.4-2.3-3.7-2.9-3.3-1.4-2.1-4.1-3.5-7.7-1.6-4.2-11.5-3.5-15.1-5.2-3.9-1.8-5.9-5.4-7.1-10.6 4.1 2 15.3 3.2 18.8 6.1 3.6 2.8 6 7.1 9.5 10.1l-5.5-7.5c5.7-1.5 6.7-.8 7.8 4.8.6-4.8-1-7.1-5.1-7-3 0-5-1.7-7-4.4 5.5-1.5 9.9-.4 13.1 4.9 2.4 3.9 5.1 7.5 5.8 12.7.2 1.7 2.3 3.1 3.9 4.1l-3.3-6.3.9-1.1 12.8 5 .3-.5c-2.6-1.4-5.2-3.1-7.9-4.3-2.7-1.2-5.5-2.2-7.1-6.1l9.4-.8.1-.5a43 43 0 0 0-6.2-.4c-2.8.1-4.9-.8-6.6-3.8-1.5-2.5-3.5-4.6-6.1-7.8 2.4.7 4.2.8 5.8 1.7 3.2 1.7 6.1 3.9 9.3 5.6 1.5.6 3.1.9 4.8.7l-6.5-3.7 12.5-6.4v-.4c-2.6.7-5.3.9-7.7 2.2-4.3 2.5-8 3.5-11.9-.7z" class="st0"/><path d="M134.7 29.3c2.2-.4 3.3-2.5 1.9-4.8-.9-1.3-1.5-2.7-2.3-4-1 .5-2.1 1.1-3.4 1.6-4.3 1.9-4.2 2.9-.5 6.5 2.3 1.2 2.1 1 4.3.7zM67.3 34.9c2.3 1.2 2.1 1 4.6.4a3 3 0 0 0 1-.4 4 4 0 0 0 1.7-5.5c-.8-1.6-1.3-3.2-1.9-4.7l-3.9 2.2c-5 2.6-5 3.8-1.5 8zM32.6 36.5c.7-1.5.6-1.4.1-3l-.3-.6a2.6 2.6 0 0 0-3.6-.8l-2.9 1.4 1.6 2.4c1.8 3.1 2.6 3.1 5.1.6zM75.9 42.8c1.6-.3 1.5-.3 2.5-1.6l.3-.6c.6-1.3 0-2.9-1.3-3.4l-2.8-1.6-1 2.6c-1.6 3.3-1.1 3.9 2.3 4.6zM29.2 50.1c1.5 1.2 1.5 1 3.5.8h.2a4 4 0 0 0 3.2-4.6c-.3-1.3-.4-2.8-.5-4.1L32 43.7c-4.5 1.6-4.8 2.6-2.8 6.4zM28 76.3c1.4-1 3-2.4 3.3-3.9.2-.8-2-2.8-3.3-3.1-1.9-.5-4.6-.8-6 .2-1.1.7-1 3.5-1 5.4.2 1.7.6 3.4 1.1 5a58 58 0 0 0 5.9-3.6zM121 68.3c-1.7-1-4.2-1.8-5.8-1.2-1.2.5-1.9 3.2-2.3 5-.2 1.7-.3 3.4-.1 5.1a56 56 0 0 0 6.6-2.1c1.6-.7 3.5-1.6 4.2-3 .2-.7-1.4-3.1-2.6-3.8zM49.1 31.3c1.3.1 3-2.2 4.1-3.7.9-1.5 1.6-3 2.1-4.7a54 54 0 0 0-6.8-.7c-1.7 0-3.8.1-5 1.1-.6.5-.1 3.4.8 4.5 1.1 1.7 3.1 3.4 4.8 3.5zM31.7 27.4c.3.9.9 1.6 1.8 1.9 2.3.6 3.8-.6 4.3-2.9 1.1-5.1.5-7.7-2-7.8-3.6-.2-7.1 1-9.6 3.5 3.1 1 5.3 2 5.5 5.3zM143.5 65.3c-2.3-1-4 1.1-5.2 6.1-.6 2.3.2 4 2.6 4.5a3 3 0 0 0 2.5-1c1.6-2.9 4.1-2.8 7.3-2.2a13 13 0 0 0-7.2-7.4zM91.5 20.4c-.3.8-.1 1.8.4 2.5 1.5 1.6 3.2 1.3 4.7-.4 3.3-3.8 4.1-6.2 2.2-7.5-2.6-1.9-6-2.5-9.1-1.6 2 2.2 3.3 4.1 1.8 7zM13.3 57.9c-.8-2.3-1-5.1-2.6-6.8s-4.3-1-6 .9A86 86 0 0 0 0 58.3c2.8.7 4.9 1.6 6.9 1.5 2.2-.1 4.3-1.2 6.4-1.9zM124.7 71.2c-.9 1.8.5 3.9 2.7 4.5 2.2.6 4.4 1 6.8 1.5-.4-2.4-.3-4.2-1.1-5.9s-2.4-3-3.7-4.4c-1.6 1.3-3.8 2.4-4.7 4.3zM9 63.8c0 2.5.3 5 .4 7.2 1.2-.5 2.7-1 4.5-2 1.7-.9 4.5-2 4.6-3.1.1-1.4-1.8-3.3-3.4-4.3-1.2-.7-3.3-.4-5-.1-.5.3-1.1 1.6-1.1 2.3zM46.5 45.1c-1-1.1-2.5-2.4-3.8-2.4-1 0-2.2 1.7-3 2.9-.6 1.1-1.1 2.4-1.5 3.6 1.7.2 3.5.3 5.2.3 1.3-.1 2.9-.2 3.8-1 .4-.4 0-2.6-.7-3.4zM121.5 47.5c-1 0-2.2 1.7-3 2.9-.6 1.1-1.1 2.3-1.5 3.6 1.7.2 3.5.3 5.2.3 1.3-.1 2.9-.2 3.8-1 .5-.4 0-2.6-.7-3.4-.9-1.1-2.5-2.4-3.8-2.4zM57.7 56.3c.9-1.1.6-3.6 0-5.2-.5-1.2-2.2-2-3.5-2.6-.4-.2-1.6.6-2 1.2a86.6 86.6 0 0 0-3.8 6.2c1.1.1 2.7.5 4.4.6 1.6.1 4.2.6 4.9-.2zM135.5 57.8c-.7 1.2-.1 3.7.7 5.1.6 1.1 2.4 1.7 3.8 2.1.4.1 1.5-.8 1.8-1.5l3-6.6-4.3-.1c-1.8.3-4.5.1-5 1zM130 37.2c-4.4 2.5-4.1 5.7-2.7 7.7 3.4.3 6.4 3.9 9.1.5 2.9-3.7-.3-6.9-1.8-10-1.6.5-3.2 1.1-4.6 1.8zM15.2 41.9c.4 1.4 2.9 4.5 3.8 4.7 2.9.6 3.4-2.5 4.9-4 .5-.5.2-2.1 0-3.2-.6-1-1.4-1.9-2.4-2.6-3.6-1.1-6.1-.5-9.7-1.6 2.9 2.4 2.4 3.3 3.4 6.7zM108 14.9c.4.6 2 .6 3.1.6 1.1-.4 2.1-1 3-1.8 1.8-3.3 1.7-5.8 3.5-9.2-2.8 2.4-3.7 1.6-7.2 2-1.4.2-5 2-5.4 2.8-1.2 2.7 1.7 3.8 3 5.6zM86.5 12.8c.8-.2 1.4-1.7 1.9-2.7 0-.9-.2-1.8-.7-2.6-2.7-2.9-5.3-4.6-8-7.5 1.3 3.5-.3 6.6-1.1 10.1-.2 1.2.1 2.4.8 3.4 2.5 2 4.8-.2 7.1-.7zM132.8 49.7c-.2-.2 5.1 6.3 8.6 4.4l5.8-3a50 50 0 0 1-4-4c-1.7-2-4.2-2.4-5.9-.8-1.4 1.3-3 2.3-4.5 3.4zM112.5 31.6c-1.5 4-2.2 6.5 2.4 6.5 2.4-1.6 6.3-.9 6.2-4.6-.1-4-3.9-4.3-6.6-5.6l-2 3.7zM22.1 48.5c-4.3.9-4 5.1-4.9 8.3a57 57 0 0 0 4.4 1.6c4.7.9 6.5-1.6 6.7-3.8-2.3-2.5-2.2-6.9-6.2-6.1z" class="st0"/></svg>