<?xml version="1.0" standalone="no"?>
<!DOCTYPE svg PUBLIC "-//W3C//DTD SVG 20010904//EN"
 "http://www.w3.org/TR/2001/REC-SVG-20010904/DTD/svg10.dtd">
<svg version="1.0" xmlns="http://www.w3.org/2000/svg"
 width="604.000000pt" height="604.000000pt" viewBox="0 0 604.000000 604.000000"
 preserveAspectRatio="xMidYMid meet">
<metadata>
Created by potrace 1.14, written by Peter Selinger 2001-2017
</metadata>
<g transform="translate(0.000000,604.000000) scale(0.100000,-0.100000)"
fill="#000000" stroke="none">
<path d="M3206 5995 c14 -53 6 -151 -21 -249 -33 -124 -37 -170 -19 -215 32
-78 103 -93 213 -47 36 16 74 30 84 32 23 4 42 26 64 74 19 40 19 42 9 91 -9
41 -28 63 -152 174 -49 44 -100 91 -115 105 -14 14 -36 34 -48 45 l-22 19 7
-29z"/>
<path d="M4686 5832 c-19 -32 -83 -50 -196 -57 -91 -6 -116 -13 -189 -52 -82
-43 -101 -65 -101 -116 0 -36 7 -47 75 -116 l74 -76 63 0 c52 0 71 5 110 30
26 16 54 43 62 60 21 45 47 109 51 130 7 31 35 115 50 148 16 38 17 74 1 49z"/>
<path d="M2435 5659 c-127 -50 -194 -99 -220 -164 -20 -45 -21 -71 -6 -122 10
-37 16 -44 50 -53 21 -5 69 -23 107 -38 91 -37 131 -39 173 -10 72 50 98 143
64 230 -24 63 -94 178 -107 177 -6 0 -33 -9 -61 -20z"/>
<path d="M4130 5586 c0 -2 -12 -48 -26 -102 -14 -53 -28 -109 -31 -123 -2 -14
-11 -57 -19 -96 -8 -38 -18 -88 -21 -110 -27 -195 -113 -350 -248 -450 -53
-39 -145 -117 -214 -182 -31 -29 -63 -53 -71 -53 -8 0 -33 17 -55 36 -22 20
-49 44 -60 53 -32 25 -90 102 -111 146 -15 32 -19 61 -18 140 0 107 1 112 34
231 13 43 24 86 25 94 2 8 4 16 5 18 3 2 3 2 14 57 10 45 11 49 20 125 l6 55
-18 -46 c-10 -25 -45 -125 -76 -222 -32 -97 -62 -177 -66 -177 -6 0 -66 64
-143 154 -10 12 -33 37 -50 55 -17 19 -44 50 -60 68 l-29 33 25 -9 c27 -11 76
-6 91 9 23 23 34 106 22 170 l-11 63 -60 -62 c-33 -34 -69 -76 -79 -93 -36
-56 -19 -113 57 -193 45 -47 112 -144 149 -215 39 -76 88 -227 90 -277 0 -13
18 -43 96 -163 72 -111 100 -154 135 -212 40 -65 87 -233 111 -393 12 -84 14
-302 2 -352 -2 -12 -7 -48 -11 -80 -10 -99 -13 -102 -48 -47 -39 63 -114 222
-165 350 -55 137 -113 258 -158 331 -41 65 -113 153 -125 153 -4 0 13 -44 38
-97 25 -54 59 -127 76 -163 50 -109 67 -150 59 -150 -10 0 -128 48 -270 110
-165 71 -283 155 -330 235 -33 56 -59 134 -61 183 -1 26 2 32 20 32 36 0 97
41 114 77 9 18 15 49 13 68 l-3 34 -80 -49 c-78 -49 -80 -50 -88 -27 -83 219
-170 470 -173 497 -2 19 -5 84 -7 143 -3 59 -7 110 -9 113 -8 8 -29 -107 -30
-166 -2 -53 9 -146 17 -160 4 -6 12 -42 20 -90 2 -14 11 -50 19 -80 9 -30 13
-56 11 -59 -3 -2 -1 -9 4 -15 24 -31 85 -298 106 -461 3 -19 10 -56 15 -81 13
-57 6 -64 -53 -53 -90 16 -165 49 -211 91 -11 10 -23 18 -26 18 -15 0 -72 96
-133 223 -36 76 -72 143 -79 150 -7 8 -38 42 -68 78 -86 99 -133 151 -160 176
-34 32 -119 79 -155 87 -22 5 -14 -2 30 -28 77 -46 180 -156 238 -254 48 -80
167 -325 167 -342 0 -6 4 -10 9 -10 13 0 23 -62 11 -74 -11 -11 -97 44 -261
165 -58 44 -111 79 -117 79 -6 0 -12 4 -14 8 -5 12 -117 59 -168 71 -63 15
-123 19 -146 10 -16 -6 -14 -8 9 -8 50 -2 180 -51 252 -96 71 -45 91 -61 205
-169 105 -100 164 -126 710 -316 246 -85 316 -113 410 -163 96 -50 133 -78
196 -144 142 -148 181 -366 100 -558 -19 -45 -148 -264 -156 -265 -8 0 -136
201 -216 338 -77 134 -139 210 -218 271 -43 34 -291 181 -304 181 -2 0 -16 8
-30 18 -48 33 -102 64 -102 58 0 -18 106 -105 221 -182 151 -100 252 -194 292
-270 38 -72 36 -84 -10 -74 -21 5 -56 11 -78 14 -23 4 -52 9 -65 11 -14 3 -38
7 -55 9 -16 3 -52 10 -80 16 -27 7 -54 13 -60 14 -149 33 -247 113 -417 341
-41 55 -88 113 -103 128 -66 65 -256 149 -431 191 -176 43 -237 70 -303 135
-27 27 -58 66 -70 87 l-20 39 5 -35 c9 -53 64 -140 111 -176 48 -36 172 -84
324 -123 147 -39 216 -77 306 -170 41 -42 119 -150 116 -161 0 -3 10 -24 24
-48 l25 -43 -208 6 c-269 7 -410 13 -509 21 -44 3 -101 7 -126 9 -26 2 -60 6
-75 9 -16 4 -39 8 -50 10 -44 9 -189 77 -331 158 -29 16 -53 26 -53 23 0 -17
197 -184 273 -232 67 -42 121 -70 152 -78 17 -5 35 -9 40 -11 15 -4 57 -14 85
-19 14 -3 36 -7 50 -10 89 -18 170 -20 478 -12 245 6 348 -12 453 -79 24 -16
46 -29 49 -29 3 0 14 -6 25 -12 21 -12 138 -53 167 -58 45 -9 146 -40 170 -52
42 -20 65 -50 110 -142 37 -73 50 -90 101 -125 168 -117 164 -111 172 -251 3
-55 8 -136 11 -180 21 -336 21 -469 -1 -536 -38 -118 -64 -143 -155 -154 -25
-3 -63 -8 -85 -11 -22 -3 -62 -8 -90 -9 -27 -2 -50 -5 -50 -5 0 -5 -177 -13
-305 -13 -198 -1 -273 7 -385 42 -99 31 -117 35 -200 37 -96 2 -165 -20 -240
-77 -112 -83 -215 -119 -327 -114 -93 4 -129 12 -273 61 -129 43 -191 59 -263
69 -20 3 -46 7 -57 10 -11 2 -42 7 -70 11 -27 3 -53 8 -57 10 -4 2 -9 0 -12
-4 -3 -5 63 -35 147 -66 83 -32 161 -61 172 -66 11 -5 58 -23 105 -40 85 -32
111 -42 153 -59 12 -5 39 -15 59 -22 21 -7 35 -16 30 -20 -4 -4 -47 -24 -97
-44 -49 -21 -114 -48 -143 -61 -29 -13 -57 -24 -62 -24 -5 0 -12 -5 -16 -12
-10 -16 144 -3 214 17 48 15 167 66 351 152 95 44 211 93 234 99 33 8 52 12
97 19 25 4 54 9 65 11 96 20 96 20 15 -53 -41 -37 -125 -117 -186 -179 -110
-109 -153 -138 -276 -188 -49 -20 -243 -74 -292 -82 -21 -3 -48 -8 -60 -10
-11 -3 -86 -7 -166 -10 -244 -8 -265 -10 -265 -24 0 -9 18 -14 55 -16 73 -3
278 -16 310 -19 14 -2 49 -3 78 -4 68 -1 68 -15 -1 -84 -57 -58 -148 -107
-272 -146 -38 -13 -79 -26 -90 -31 -11 -4 -36 -13 -55 -20 -36 -12 -41 -14
-120 -48 -25 -11 -82 -34 -128 -53 -75 -30 -102 -49 -69 -49 11 0 268 72 542
151 153 45 154 45 177 22 l21 -21 -39 -57 c-21 -32 -43 -65 -49 -74 -5 -9 -12
-18 -15 -21 -11 -11 -60 -86 -60 -92 0 -8 105 50 148 82 22 16 40 45 57 90 35
93 107 168 279 295 77 58 146 108 151 112 6 5 36 27 67 50 31 24 89 74 128
113 50 48 94 80 144 104 68 33 176 71 227 81 134 27 194 37 254 42 91 9 319 9
370 -1 34 -6 242 -18 299 -17 34 0 -32 -34 -150 -77 -126 -46 -160 -55 -265
-70 -64 -9 -179 -8 -229 3 -19 4 -66 23 -105 42 -104 53 -157 44 -236 -39 -38
-40 -139 -180 -139 -193 0 -3 44 27 98 68 53 41 108 81 122 90 30 18 89 16
119 -5 23 -16 23 -16 -46 -83 -145 -143 -332 -295 -362 -295 -6 0 -11 -4 -11
-10 0 -13 -4 -14 81 14 96 30 230 85 250 102 8 8 20 14 26 14 5 0 25 23 44 50
39 57 88 93 148 110 23 6 122 13 219 14 97 2 184 6 192 8 8 3 33 8 55 13 22 4
78 18 124 31 46 13 88 24 93 24 21 0 -135 -169 -237 -256 -109 -94 -243 -163
-350 -180 -49 -8 -160 -8 -197 -1 -30 6 -36 -7 -15 -33 10 -13 48 -15 230 -14
119 0 217 -2 217 -5 0 -7 -52 -113 -63 -126 -135 -177 -259 -365 -242 -365 21
0 139 95 213 170 62 63 92 117 117 210 42 154 98 232 223 316 61 41 157 120
205 167 59 60 173 206 188 242 2 6 17 35 34 65 16 30 39 79 50 108 18 46 39
69 41 45 0 -5 11 -39 23 -78 46 -140 38 -290 -21 -392 -40 -69 -155 -210 -301
-368 -57 -61 -142 -201 -94 -153 8 7 38 33 67 58 29 25 58 50 64 55 56 53 163
135 177 135 23 0 36 -20 34 -50 -8 -96 -16 -130 -88 -410 -19 -74 -38 -164
-42 -200 l-6 -65 29 52 c17 29 54 85 83 125 53 73 118 192 119 216 0 23 22 1
41 -43 10 -23 21 -66 25 -96 10 -87 50 -146 52 -78 0 17 5 36 10 42 5 7 16 31
25 53 17 44 12 58 -32 104 -38 37 -90 108 -112 150 -37 74 -29 166 26 295 63
149 105 277 121 374 14 89 37 191 43 191 23 0 132 -225 158 -330 13 -51 11
-250 -3 -295 -7 -25 -9 -45 -5 -45 5 0 11 8 14 18 3 9 22 60 42 112 20 52 38
101 41 109 3 10 11 5 29 -15 43 -49 72 -107 84 -164 10 -52 8 -162 -4 -200 -3
-10 -8 -27 -10 -37 -5 -27 -45 -143 -60 -178 -16 -38 -65 -174 -65 -182 0 -4
10 2 23 13 12 11 54 41 92 66 39 26 76 56 83 68 15 25 33 17 93 -41 42 -41 42
-40 26 -105 -2 -6 -10 -22 -18 -35 -9 -13 -19 -37 -23 -54 l-7 -29 22 19 c65
56 93 106 86 151 -3 20 -29 64 -63 106 -31 40 -61 84 -67 98 -13 32 -16 89 -5
118 14 41 20 76 25 160 l6 83 81 -6 c44 -3 92 -8 106 -10 14 -2 52 -6 85 -10
145 -17 230 -49 269 -102 26 -35 25 -102 -2 -219 -36 -150 -34 -183 17 -260
21 -33 42 -78 46 -100 5 -21 10 -46 12 -54 5 -20 11 -62 12 -77 1 -7 6 -13 12
-13 8 0 10 24 6 78 -8 112 -19 152 -65 226 -35 57 -35 73 2 155 19 40 33 86
32 102 -3 35 6 37 27 7 8 -13 36 -46 63 -74 54 -56 198 -142 209 -124 9 15
-68 86 -132 122 -75 42 -96 72 -111 154 -7 38 -20 95 -29 127 -22 77 -67 116
-166 146 -63 18 -203 47 -247 49 -235 15 -383 137 -461 379 -12 40 -20 75 -18
78 3 3 32 -4 65 -15 51 -18 101 -32 164 -45 105 -22 358 -94 414 -117 114 -48
168 -96 326 -288 67 -81 133 -151 138 -145 2 2 -7 19 -22 37 -31 39 -24 30
-104 140 -35 49 -61 92 -58 97 15 24 181 34 212 14 26 -16 60 -81 74 -140 6
-24 13 -43 15 -43 6 0 -2 124 -11 145 -26 68 -80 104 -164 111 -145 12 -185
32 -283 143 -16 18 -27 35 -25 37 12 11 111 22 178 20 104 -4 179 -34 244
-100 28 -28 58 -60 66 -71 30 -39 120 -186 120 -194 0 -5 4 -11 9 -13 13 -5
80 -144 101 -209 10 -32 23 -83 29 -115 11 -59 18 -72 61 -114 32 -30 90 -73
90 -65 0 3 -26 56 -57 118 -32 61 -59 115 -61 118 -1 3 6 16 16 29 l18 22 210
-82 c229 -89 251 -98 276 -111 24 -12 28 -11 28 4 0 7 -57 45 -127 84 -115 64
-160 86 -270 134 -18 8 -33 17 -33 21 0 5 -6 8 -13 8 -20 0 -102 84 -126 130
-25 47 -25 47 74 54 39 3 99 8 135 12 36 3 80 7 99 8 19 1 37 8 39 14 2 7 0
12 -5 13 -56 5 -127 9 -214 13 -160 6 -208 33 -295 168 -24 37 -78 109 -121
160 -120 143 -112 132 -83 125 14 -3 36 -8 50 -11 14 -3 39 -9 55 -12 46 -10
141 -57 235 -118 220 -142 285 -172 383 -175 37 -1 34 11 -10 36 -95 52 -203
116 -201 118 4 3 197 104 366 190 72 37 132 71 132 75 0 4 -17 4 -37 0 -21 -5
-49 -11 -63 -13 -71 -13 -161 -42 -224 -72 -108 -51 -165 -68 -231 -68 -77 0
-137 28 -213 99 -81 78 -105 88 -187 89 -58 0 -87 -7 -175 -42 -58 -22 -118
-44 -135 -47 -84 -16 -106 -19 -180 -20 -97 -2 -262 25 -349 58 -205 78 -328
193 -418 391 -44 96 -49 122 -50 245 -1 109 2 137 30 275 11 55 23 128 26 161
7 86 15 114 43 151 31 42 42 48 160 78 119 30 267 87 270 102 3 12 -188 10
-321 -2 -87 -8 -97 6 -44 60 41 41 60 78 88 170 22 75 105 144 203 169 35 9
97 13 192 11 180 -4 195 -7 395 -73 83 -27 260 -39 335 -22 22 4 56 11 75 14
19 3 51 10 70 14 38 9 152 8 215 -1 77 -12 145 -18 145 -13 0 10 -104 59 -160
76 -69 21 -162 18 -260 -8 -55 -15 -99 -19 -165 -17 -93 4 -124 11 -385 88
-85 25 -211 60 -280 78 -69 17 -127 33 -129 35 -4 3 10 44 35 101 8 17 14 35
14 40 0 20 163 420 183 450 67 99 184 91 452 -32 145 -66 295 -106 398 -104
29 0 45 3 37 6 -8 3 -31 12 -50 20 -63 27 -73 31 -240 96 -91 35 -200 77 -242
93 -62 23 -78 33 -78 49 0 16 14 25 68 43 212 74 387 192 496 336 42 55 41 74
-1 29 -138 -147 -416 -278 -652 -308 -82 -10 -91 -13 -148 -41 -53 -25 -133
-93 -133 -112 0 -6 -4 -12 -9 -14 -4 -1 -49 -85 -99 -186 -50 -100 -100 -195
-112 -212 -11 -16 -29 -54 -39 -83 -33 -94 -77 -148 -211 -261 -19 -16 -44
-37 -56 -47 -17 -16 -23 -17 -38 -6 -16 12 -16 15 3 67 11 30 45 134 76 230
54 167 57 180 60 299 5 176 31 267 93 333 41 45 18 43 -31 -2 -69 -63 -105
-144 -117 -265 -5 -55 -13 -118 -16 -140 -4 -22 -8 -51 -10 -65 -4 -28 -11
-65 -18 -95 -2 -11 -5 -25 -5 -32 -1 -10 -37 -10 -47 -1 -2 3 -67 255 -79 313
-4 17 -9 70 -11 118 -5 132 31 212 146 325 97 95 282 200 379 215 82 13 172
54 289 130 l74 48 76 -19 c47 -12 105 -19 149 -18 81 2 112 18 150 77 12 19
29 41 38 50 8 9 15 18 15 22 0 3 18 32 40 63 22 32 40 62 40 67 0 6 -3 8 -6 4
-3 -3 -17 -2 -30 3 -14 6 -35 12 -47 14 -12 2 -56 15 -97 29 -108 36 -159 33
-210 -10 -26 -22 -57 -74 -64 -108 -1 -5 -16 -40 -34 -78 -18 -37 -32 -73 -32
-81 0 -11 -46 -32 -59 -26 -2 1 -7 -2 -10 -7 -3 -4 -33 -17 -66 -28 -33 -10
-67 -23 -75 -27 -17 -9 -258 -98 -266 -98 -3 0 -3 12 0 28 3 15 8 47 11 72 5
40 9 69 21 135 2 11 6 40 10 65 3 25 9 70 14 100 6 30 12 73 15 95 6 50 13 93
19 125 3 14 7 43 10 65 4 22 9 52 12 67 3 14 0 29 -5 33 -6 3 -11 4 -11 1z"/>
<path d="M3627 5502 l-28 -7 36 -47 c52 -67 66 -119 48 -183 -23 -81 -24 -105
-7 -134 29 -49 80 -69 131 -51 33 12 113 97 150 158 40 67 52 111 41 144 -12
34 -75 79 -143 103 -54 18 -183 28 -228 17z"/>
<path d="M1335 5279 c-96 -12 -203 -58 -263 -114 l-23 -22 63 -23 c88 -31 141
-87 156 -164 6 -31 17 -62 24 -69 52 -49 136 -48 180 2 39 43 60 129 60 242 0
132 -46 166 -197 148z"/>
<path d="M5260 5146 c-111 -55 -125 -64 -134 -93 -7 -28 -5 -39 17 -70 36 -54
83 -100 119 -119 81 -42 229 7 240 79 6 35 -12 87 -48 144 -19 30 -34 57 -34
61 0 4 -8 19 -18 33 l-17 27 -125 -62z"/>
<path d="M1850 5133 c-14 -2 -44 -11 -67 -19 -32 -12 -43 -22 -48 -43 -8 -38
11 -117 37 -155 29 -41 95 -101 127 -116 14 -7 33 -16 41 -20 40 -19 93 13
160 98 38 47 116 192 104 192 -4 0 -1 6 5 14 19 22 7 27 -104 41 -60 8 -220
13 -255 8z"/>
<path d="M2793 4972 c-134 -74 -179 -109 -189 -146 -21 -83 108 -233 196 -228
123 7 210 80 210 176 0 25 -78 244 -94 263 -1 1 -56 -28 -123 -65z"/>
<path d="M4577 4887 c-31 -47 -76 -146 -92 -200 -22 -78 -17 -135 15 -158 27
-20 111 -34 120 -20 3 4 43 20 89 36 104 34 141 65 146 121 8 104 -43 160
-200 220 l-63 23 -15 -22z"/>
<path d="M4135 4726 c-140 -58 -173 -80 -181 -121 -12 -63 34 -157 88 -180 55
-23 198 22 198 63 0 6 4 12 9 12 5 0 13 15 17 33 10 40 10 39 0 112 -11 93
-18 125 -25 124 -3 -1 -51 -20 -106 -43z"/>
<path d="M1165 4748 c-11 -5 -44 -21 -73 -36 l-52 -27 45 -68 c25 -38 45 -72
45 -75 0 -4 15 -17 34 -30 40 -27 65 -21 118 31 37 35 56 86 41 109 -4 7 -8
15 -9 18 -5 26 -27 61 -45 71 -29 15 -79 19 -104 7z"/>
<path d="M500 4603 c0 -6 9 -18 21 -29 34 -31 60 -90 75 -171 13 -68 60 -147
128 -212 39 -38 80 -44 122 -17 13 9 46 50 74 91 48 70 51 79 47 125 -5 52
-17 76 -61 123 -46 50 -78 58 -321 81 -16 1 -42 6 -57 10 -17 5 -28 4 -28 -1z"/>
<path d="M5333 4590 c-24 -11 -43 -17 -43 -15 0 14 -139 -73 -171 -107 -82
-89 -68 -223 26 -247 25 -6 69 -22 98 -35 108 -50 178 -40 228 32 61 85 54
165 -24 298 -29 48 -56 89 -62 90 -5 1 -29 -6 -52 -16z"/>
<path d="M2982 4583 c-19 -35 -61 -149 -66 -175 -6 -35 9 -53 64 -76 31 -13
56 -16 83 -12 20 4 39 9 40 11 36 45 56 78 57 94 7 65 -6 84 -98 138 -35 20
-65 37 -67 37 -3 0 -8 -8 -13 -17z"/>
<path d="M1406 4333 c-4 -4 -12 -8 -19 -9 -7 -2 -54 -20 -106 -42 -153 -64
-178 -98 -140 -195 24 -63 70 -106 107 -101 15 2 41 5 58 7 80 12 141 78 139
151 -2 72 -17 186 -25 191 -4 2 -10 1 -14 -2z"/>
<path d="M1659 4292 c-49 -51 -78 -98 -104 -165 -23 -61 -23 -67 -7 -68 9 -1
28 -3 42 -5 14 -1 61 -4 105 -5 177 -4 229 30 192 126 -26 67 -101 131 -162
140 -34 4 -44 1 -66 -23z"/>
<path d="M5543 4197 c-48 -26 -212 -153 -212 -164 -1 -19 128 -129 186 -157
73 -36 115 -36 186 3 31 17 88 46 126 65 l69 35 -102 103 c-56 57 -114 109
-129 116 -35 15 -95 15 -124 -1z"/>
<path d="M4854 4120 c-47 -19 -135 -153 -150 -229 -7 -32 -1 -33 166 -34 93
-1 123 3 154 18 l38 18 -6 50 c-7 64 -37 107 -105 151 -57 38 -64 40 -97 26z"/>
<path d="M830 4068 c-50 -26 -95 -84 -106 -138 -12 -58 -13 -63 -23 -115 -6
-34 -6 -54 1 -63 6 -7 13 -10 16 -7 3 3 10 1 16 -4 6 -5 40 -19 76 -31 127
-42 248 -19 292 57 28 47 33 81 15 102 -8 9 -33 52 -56 96 -23 44 -55 90 -69
102 -36 30 -103 30 -162 1z"/>
<path d="M2130 4074 c-23 -14 -130 -162 -130 -179 0 -4 -14 -27 -31 -51 -17
-25 -29 -48 -26 -51 3 -3 22 -7 41 -9 20 -1 40 -5 44 -8 4 -3 44 -8 88 -11 43
-4 93 -8 109 -9 17 -2 44 1 62 6 27 7 33 15 39 46 24 119 -10 208 -95 251 -57
29 -74 31 -101 15z"/>
<path d="M263 4000 c-42 -20 -82 -59 -142 -140 -22 -30 -44 -59 -48 -65 -5 -5
-19 -26 -33 -45 -13 -19 -29 -38 -34 -42 -25 -17 197 -76 272 -72 60 2 252 63
252 79 0 5 -7 31 -15 58 -8 26 -14 49 -14 52 -3 49 -55 149 -90 171 -35 23
-102 25 -148 4z"/>
<path d="M5477 3737 c-28 -7 -41 -17 -48 -36 -19 -49 4 -163 43 -212 14 -17
87 -53 130 -64 36 -9 71 26 112 116 72 158 86 190 86 199 0 12 -271 9 -323 -3z"/>
<path d="M423 3563 c-48 -6 -62 -52 -56 -183 3 -58 6 -116 7 -130 2 -14 4 -35
4 -47 2 -27 -1 -29 170 53 167 79 192 97 192 134 0 38 -53 107 -114 148 -43
28 -56 32 -110 30 -33 0 -75 -3 -93 -5z"/>
<path d="M5664 3409 c-29 -15 -79 -102 -104 -184 -31 -103 -29 -157 9 -195 59
-62 149 -51 199 26 36 54 85 74 181 70 45 -1 83 -1 85 1 2 2 -8 27 -23 55 -37
73 -134 168 -210 206 -66 33 -101 38 -137 21z"/>
<path d="M4612 3337 c-27 -12 -57 -69 -77 -145 -17 -68 -26 -223 -14 -243 6
-10 22 -8 74 6 184 50 338 129 351 180 7 30 -19 86 -60 126 -67 66 -208 105
-274 76z"/>
<path d="M5168 3338 c-7 -7 -31 -26 -53 -43 -122 -91 -150 -149 -105 -222 33
-54 93 -81 245 -109 17 -3 48 -9 70 -14 22 -5 43 -10 47 -10 7 0 5 43 -7 130
-10 71 -18 96 -45 135 -29 41 -124 145 -133 145 -3 0 -12 -6 -19 -12z"/>
<path d="M959 3269 c-65 -10 -86 -23 -100 -66 -24 -74 -19 -177 15 -328 1 -5
6 -18 12 -27 9 -16 15 -14 67 17 32 19 62 35 67 35 4 0 10 4 12 8 2 4 21 19
43 32 55 33 131 96 154 129 37 51 35 78 -10 122 -22 21 -52 45 -67 53 -39 20
-139 33 -193 25z"/>
</g>
</svg>
