<svg xmlns="http://www.w3.org/2000/svg" viewBox="0 0 111.55 18.81">
  <g>
    <g fill="#fff" stroke="#fff" stroke-linecap="round" stroke-linejoin="round" stroke-width=".56693">
      <path d="M1.3 18.12a2.29 2.29 0 0 0 .51-1.79V4a4.62 4.62 0 0 0-.25-1.89 1.66 1.66 0 0 0-1.28-.78V.51h5.21c1.78 0 4.38.31 4.38 3.91A4.15 4.15 0 0 1 6.62 8.7v.39a4.15 4.15 0 0 1 2.9 1.45 4.67 4.67 0 0 1 .75 2.65c0 4.31-2.62 5.31-4.91 5.31H1.31Zm6.31-13.5c0-2.58-1.37-3-2.73-3C4 1.58 4 1.81 4 3v5.65c1.77 0 3.61-.79 3.61-4.03Zm.25 8.52a3.15 3.15 0 0 0-1.92-3.21A5.46 5.46 0 0 0 4 9.62v5.84c0 .87 0 2 .63 2 1.79-.03 3.23-1.36 3.23-4.32Z"/>
      <path d="M13.35 11.07v-.36c0-1.07-.1-1.52-1.2-1.52V8.8h2.81a50 50 0 0 0-.24 5.2c0 1.72.53 3.11 2.29 3.11a2.85 2.85 0 0 0 1.51-.38c0-2.5 0-6.08-.08-7.49l1.64-.6.16.12a65.89 65.89 0 0 0-.24 6.7 2.76 2.76 0 0 0 .18 1.32.79.79 0 0 0 .59.16 4.77 4.77 0 0 0 .67-.06v.35l-1.95.59a1.93 1.93 0 0 1-.41.06.62.62 0 0 1-.6-.7 7.08 7.08 0 0 1-2.62.66c-2.08 0-2.62-1.3-2.62-3.42.02-.94.07-2.24.11-3.35Z"/>
      <path d="M23.52 17.57a1.59 1.59 0 0 0 .24-.51v-6.13a5.15 5.15 0 0 0-.08-1.16c-.12-.45-.59-.49-.95-.54v-.39h4.84c2.49 0 4.17 1 4.17 4 0 3.37-2.21 4.91-5 4.91h-3.22Zm2.84-.37c2.5 0 3.65-1.6 3.65-4.28 0-2.83-1.27-3.54-3.62-3.54-1 0-1 0-1 1v5a11.94 11.94 0 0 0 .08 1.35c.03.47.53.47.89.47Z"/>
      <path d="M34.14 17.57a1.59 1.59 0 0 0 .24-.51v-6.13a5.15 5.15 0 0 0-.08-1.16c-.12-.45-.6-.49-1-.54v-.39h4.84c2.49 0 4.17 1 4.17 4 0 3.37-2.21 4.91-5 4.91h-3.17ZM37 17.2c2.5 0 3.65-1.6 3.65-4.28 0-2.83-1.27-3.54-3.63-3.54-1 0-1 0-1 1v5a10 10 0 0 0 .08 1.35c.02.47.56.47.9.47Z"/>
      <path d="M45 13.16V10c0-.45-.76-.62-1.07-.68v-.4h2.68c0 .62-.06 1.29-.08 1.92s0 1.27 0 1.82a.57.57 0 0 0 .54.2H50c.25 0 .56 0 .56-.32V9.07l1.58-.4.12.14c-.14 1.45-.19 2.92-.19 4.39v3.34a.84.84 0 0 0 .9.79v.4l-2.34.1-.27-.27c.12-1.26.16-2.52.16-3.8 0-.32-.17-.34-.42-.34h-3.22c-.23 0-.34.11-.34.35 0 1.2 0 2.4.07 3.59l-1.55.46-.06-.12v-4.54Z"/>
      <path d="M54.25 17.62a83.19 83.19 0 0 0 4.24-7.89v-.1c-.37-.07-.86-.14-1.09-.17V9H60c.34 1.56.85 3.2 1.28 4.74.2.76.81 3.22 1.65 3.22a3.11 3.11 0 0 0 .66-.1l.07.37a5.44 5.44 0 0 1-2.06.71c-.69 0-1-.65-1.11-1.27s-.4-1.55-.59-2.33H57a35 35 0 0 0-1.27 3.28l-1.44.14Zm3.15-3.94h2.25c-.26-1-.65-2.43-.85-3h-.09c-.39.71-.93 2-1.35 2.94Z"/>
      <path d="M66.05 4.11c0-2.35-.12-2.45-1.57-2.73V.62h3.17C69.76 5 72 9.11 74.35 13.19h.18L74.27 1l1.24-.72.31.34c-.17 3.47-.32 6.93-.38 10.4v3.53c0 1.18 0 2.52.08 3.77h-1.2L67 4.77l-.17.11.42 12.73-1.25.91-.18-.2c.11-4.74.23-9.46.23-14.21Z"/>
      <path d="M78.21 11.62V9.93c-.12-.56-.62-.61-1.08-.69v-.38a51.39 51.39 0 0 0 5.71-.19v.89l-.12.14L80 9.52c-.36 0-.38.3-.38.63v2.3c0 .12.09.33.23.33s1.67-.12 2.52-.18c0 0 0 0 0 0l.13.1v.74h-2.6c-.22 0-.32.09-.32.35a20.88 20.88 0 0 0 .09 2.46c.09.57.31.78.84.78h.12l3.1-.19.13.1-.31 1c-1.3-.09-2.61-.1-3.92-.1a6.73 6.73 0 0 1-1.1 0 2.19 2.19 0 0 1-.38-.6Z"/>
      <path d="m85.33 17.42 3.2-4c-.67-1.23-1.36-2.43-2.06-3.64-.2-.32-.8-.46-1.14-.55v-.4l2.4-.08c.54 1.16 1.15 2.28 1.78 3.41L91.8 9l1.3-.22v.36a30.3 30.3 0 0 0-3.25 3.63c.72 1.3 2 3.74 3.25 4.42v.23l-1.93.46c-.57-.83-1.52-2.52-2.25-3.79a31.32 31.32 0 0 0-2.38 3.38l-1.21.25Z"/>
      <path d="M95.66 11.07v-.36c0-1.07-.09-1.52-1.19-1.52V8.8h2.81A50 50 0 0 0 97 14c0 1.72.53 3.11 2.28 3.11a2.87 2.87 0 0 0 1.52-.38c0-2.5 0-6.08-.08-7.49l1.64-.6.16.12a65.89 65.89 0 0 0-.25 6.75 2.76 2.76 0 0 0 .18 1.32.79.79 0 0 0 .59.16 4.91 4.91 0 0 0 .67-.06v.35l-2 .59a1.93 1.93 0 0 1-.41.06.62.62 0 0 1-.6-.7 7.08 7.08 0 0 1-2.62.66c-2.08 0-2.62-1.3-2.62-3.42.12-.99.17-2.29.2-3.4Z"/>
      <path d="m106.52 15.24.21.09a1.82 1.82 0 0 0 1.64 2 1.56 1.56 0 0 0 1.47-1.57c0-1-1.18-1.65-1.87-2.06-.85-.5-2-1.36-2-2.55 0-1.93 1.51-2.59 3-2.59 1 0 1.87.15 2.3 1.28l-1.09 1-.19-.08c-.12-.93-.66-1.67-1.55-1.67a1.17 1.17 0 0 0-1.19 1.29c0 1.14 1 1.69 1.81 2.13 1 .55 2.19 1.2 2.19 2.61 0 1.86-2.08 2.88-3.51 2.88a2.64 2.64 0 0 1-2.33-1.29Z"/>
    </g>
  </g>
</svg>
