<svg xmlns="http://www.w3.org/2000/svg" viewBox="0 0 150.64 150.48">
  <g>
    <g fill="#c5ab71" fill-rule="evenodd">
      <path d="M91.26 95.27a22.89 22.89 0 0 1 .68-8.33c1.41-5.52-.58-9 5.27-10.1 3.89-.74 3.41-1.24 7.24-2.31l-.09-.79c-5.73.91-3.82-.18-9.55.73l-.5-.76c4.61-3.63 1.28-5.79 6.3-8.7 2.56-1.49 6.42-1.06 9.67-.92 2.38.1 4.76 1 7.08 1.79 3.75 1.19 7.27.88 11.15-.09 3.32-.83 7.11.2 10 .37-2.53-1.61-6.06-3.24-10.07-2-3.78 1.2-7.2.7-10.84-.52-4.56-1.52-9.27-2.61-13.94-3.9 1.51-4 3.15-8.64 5.06-13.2 1.29-3.08 3.09-3.86 6.36-3a33.12 33.12 0 0 1 5.44 2.12c4 1.92 8.22 3 11.52 2.68l-15.65-6.11v-.85c6.26-2.21 12.14-4.92 15.43-11.11-5 5.59-11.31 8.26-18.57 9.18a9 9 0 0 0-6.71 4.75c-1.37 2.35-2.39 4.9-3.64 7.33a32 32 0 0 1-1.82 2.86l-.21.83c-1 4.08-4.57 5.74-7.12 8.37l-1-.42c.59-1.78 1.23-3.55 1.75-5.35.81-2.76 2.19-5.55 2.14-8.31-.07-4.16.13-7.92 3.65-10.8a9 9 0 0 0-5 8.23 78.47 78.47 0 0 1-1.26 8.3h-1.22C92 51.49 90.74 47.77 90.48 44a9.74 9.74 0 0 1 2.3-6.23 21.52 21.52 0 0 1 12.08-7.19c3-.7 5.71-2.64 8.31-4.5l-12.69 4.72c1.09-7.06 2-13.35 3-19.63L103 11c-.48 2-1 3.92-1.43 5.89-.5 2.29-.93 4.59-1.35 6.9a14.9 14.9 0 0 1-6.43 9.75c-2.26 1.63-4.23 3.67-6.42 5.59-6.61-4.75-7.61-8-5.07-16.17a41.33 41.33 0 0 0 1.59-8.48l-4 12-7.36-8.24c3.91 2.36 4.44-2 3.39-5.57l-2.85 3c-2.4 2.54-.3 4.48 1.17 6.06a22.87 22.87 0 0 1 5.56 11.39C80.2 35.2 82 37 83.16 39c1.25 2.15 2.88 4.18 3.6 6.5a45.85 45.85 0 0 1 2 10.63c.2 3.1-.51 6.26-.89 10C82.6 58.6 82 49.62 75.41 43.4l5 10.94c-11.22-4.47-16.1-6.27-16.95-14 2.2-.35 4.15-1.09 3.89-4.72l-4.13 2.59-4.5-12.45c-.11-2.33-.21-4.67-.34-7.39-2 5.16 0 9.67.94 14.24l-.1-.1c.53 1.72 1.2 3.41 1.56 5.16.7 3.45 1.24 6.93 1.85 10.41-4.23-.29-8-1.92-9.93-6.56-.7-1.69-1.58-3.31-2.38-5l.1.09c-2-2.31-3.92-4.69-6-6.9a16.58 16.58 0 0 0-3.12-2.07l-2.65-.91c8 3.42 9.9 11.17 13.38 17.77-.21.27-.42.54-.64.8l-5.2-3.54.1.11c-3.89-3.19-7.91-6-13.43-5.08 5.37.32 9.26 3 12.87 6.87 1.87 2 4.88 3.12 7.56 4.16 5.26 2 10.68 3.7 16 5.66a34 34 0 0 1 6 2.93c7.19 4.4 8.84 12.69 4 19.7-.69 1-1.27 2.12-2.2 3.69-2.06-3.26-4-6-5.57-8.91a19.44 19.44 0 0 0-8.25-8.44c-2.72-1.45-5.34-3.06-8.19-4.71C59.13 63 66.91 64.14 69 71.31c-4.15-.82-8.3-1.18-12.08-2.57-2.24-.83-4-3.15-5.77-5-2-2.21-3.4-5.3-5.8-6.85a32.2 32.2 0 0 0-10.46-4.07c-3.89-.82-7.1-2.14-8.96-6.39a7.67 7.67 0 0 0 5.23 6.64c1.61.63 3.3 1.1 4.95 1.64l-.11-.06c6.2 1 10 4.76 12.6 10.71-3.92 0-19.9-.39-23.45-1.19s-7.63-3.51-10.45-4.87c1.18 1.58 7.61 7.13 11 8 7.34 2 10.76 1.4 15.34 1.22 3.33-.14 9.07-.22 11.87 1.81 2.34 1.7 5.46 2.46 8.34 3.22 4 1 3.64 1.92 5.76 6 .69 1.33 5.6 3.45 5.74 4.9.17 1.8.48 7.58.71 12.09"/>
      <path d="M73.42 96.46c.17 2.89.3 5.19.3 5.19.13 2.33-1.25 6.7-2.7 7-4.94.93-18.48 2.24-23.89.35-4.28-1.51-8.33-1.85-11.56.79-5.25 4.3-10.25 3.24-16 1-3.22-1.25-7-1.5-10.46-2.19v.42l17 6.47-8.79 3.71a16.85 16.85 0 0 0 6.47-.7c4.29-1.69 8.3-3.92 12.58-5.63 2.11-.83 4.57-1 7.85-1.68-3.4 3.19-6.22 5.24-8.22 7.81-2.25 2.91-12.88 5.73-16.7 5.63-2.81-.08-5.64.26-8.45.41l.09.49 12.74.83c-2.16 3.89-5.91 4.87-9.63 6.08S7 135.23 3.4 136.67l.35.48 17.32-5 1.26 1.07-4.42 6.33c2.09-1 5-2.39 5.26-4.08.84-5.19 12.38-10.67 15.63-14.61 4.36-5.29 19.36-7 26.87-5.45l6.21.16c-8.88 4.67-16.43 4.65-19.62 2.43-3.89-2.68-6.59 2-9.4 6.22 5.35-3.68 6.27-6.17 9.35-3.71-2.2 2-7.45 7.63-11.45 9.42.24.45 6.5-1.64 9.83-3.73 2.64-5.37 7.4-3.76 11.75-3.92 3.3-.12 6.57-1.35 10-2.12-5.76 6.61-11.57 12.67-20.84 10.91.18.43.37.85.56 1.28h11.13c-1.63 4.57-6.51 8.77-7.89 12.64 2.62-1.76 7.49-5.28 8.26-9s2.39-6.51 5.18-8.3A31.4 31.4 0 0 0 81.88 111c2 5 2.54 9.21.09 13-1.86 2.89-4.32 5.27-6.52 7.85a27.74 27.74 0 0 0-3.81 5.2l8.18-6.93 1.12.42c0 6.13-3.38 12.25-3.38 18.28.75-3.24 4.87-6.45 5.85-10.69 2.35 2.66.78 4.71 2.59 6.75h.35c-.88-1.7 1.91-3.73.71-5-5.23-5.68-5.2-6.84-2-14.11 1.72-3.91 2.25-8.53 3.16-12.2 3.89 5.5 6.3 12.33 2.3 20.53.68-1.49 1.39-3 2-4.47s1.25-3.33 2-5.43c6.17 6 1.16 13.22-1 20.49.95-2.11 4.58-2.86 5.54-5 4.83 3.34 2.59 2.95 1.29 7.28 4-3.34 3.26-4.74 1.45-6.78-4.41-5-.8-4.69-1.34-11.8 4.1.78 13.9.14 14.14 4.81.2 4-2.83 7.63 0 10.69 1.27 1.37 1.3 4.31 1.9 6.56a11.37 11.37 0 0 0-2-9.15c-1.1-1.54 2.1-4 1.3-6.66 3.68 4.81 4.09 4.24 7.42 6.14l.32-.59c-1.23-1-2.36-2.3-3.72-2.89-3.32-1.42-2.13-4.1-3.5-7.69-1.62-4.22-11.53-3.49-15.08-5.16-3.89-1.83-5.93-5.36-7.09-10.57 4.06 2 15.29 3.24 18.85 6.07s6 7.08 9.52 10.13l-5.52-7.54c5.72-1.54 6.74-.85 7.78 4.79.57-4.79-1-7.07-5.14-7-3 0-5-1.74-7-4.42 5.54-1.52 9.91-.39 13.12 4.9 2.4 3.94 5.14 7.54 5.77 12.73.2 1.69 2.34 3.07 3.88 4.08q-1.64-3.17-3.26-6.33l.93-1.07 12.77 5c.09-.15.17-.32.26-.47-2.62-1.44-5.17-3.07-7.87-4.26s-5.51-2.19-7.11-6.09l9.4-.83c0-.16 0-.32.07-.48a56.82 56.82 0 0 0-6.23-.41c-2.82.1-4.89-.84-6.56-3.75-1.45-2.54-3.54-4.59-6.08-7.78 2.42.67 4.23.84 5.78 1.68 3.17 1.71 6.12 3.94 9.29 5.63a9.36 9.36 0 0 0 4.77.7l-6.48-3.72 12.5-6.44v-.42c-2.59.69-5.35.94-7.72 2.19-4.21 2.2-7.9 3.27-11.78-1-2.37-2.64-5.36-2.3-8.52-.8-8.5 4-22.71 1-26.74-8.74a11.71 11.71 0 0 1-1.61-4.93"/>
      <path d="M134.34 20.49c.71 1.28 1.4 2.69 2.26 4 1.45 2.25.36 4.39-1.88 4.77s-2.05.58-4.26-.58c-3.7-3.66-3.83-4.69.5-6.55 1.24-.5 2.39-1.13 3.38-1.64Z"/>
      <path d="M72.74 24.68c.6 1.51 1.15 3.17 1.91 4.73a4.09 4.09 0 0 1-2.73 5.9c-2.47.6-2.33.82-4.59-.43-3.55-4.19-3.55-5.42 1.47-8 1.43-.68 2.79-1.54 3.94-2.2Z"/>
      <path d="M25.9 33.57c.93-.46 2-.89 2.92-1.44a2.61 2.61 0 0 1 3.88 1.46c.49 1.55.63 1.45-.07 2.95C30.14 39 29.35 39 27.51 36c-.51-.91-1.14-1.73-1.61-2.43Z"/>
      <path d="M74.52 35.58c.9.52 1.83 1.13 2.83 1.61a2.61 2.61 0 0 1 1 4c-1 1.28-.84 1.33-2.47 1.6-3.43-.7-3.91-1.32-2.4-4.57.39-.89.73-1.85 1.04-2.64Z"/>
      <path d="M35.52 42.15c.16 1.3.26 2.71.54 4.06a3.94 3.94 0 0 1-3.37 4.61c-2.07.27-2 .47-3.53-.77-1.94-3.75-1.68-4.77 2.8-6.41 1.27-.46 2.52-1.05 3.56-1.49Z"/>
      <path d="M106 31.39c.16 1.29.26 2.71.54 4.06a3.94 3.94 0 0 1-3.37 4.61c-2.07.27-2 .47-3.53-.77-1.94-3.75-1.68-4.77 2.8-6.41 1.25-.46 2.5-1.05 3.56-1.49Z"/>
      <path d="M22.16 79.88a23.79 23.79 0 0 1-1.13-5c0-1.86-.05-4.64 1-5.38 1.43-1 4.07-.77 6-.25 1.38.38 3.52 2.32 3.34 3.15-.32 1.49-1.95 2.87-3.33 3.91a61.79 61.79 0 0 1-5.88 3.57Z"/>
      <path d="M112.71 77.25a23 23 0 0 1 .11-5.11c.41-1.82 1.07-4.52 2.3-5 1.62-.59 4.13.24 5.84 1.2 1.25.7 2.86 3.1 2.49 3.86-.67 1.37-2.59 2.32-4.18 3a61.52 61.52 0 0 1-6.56 2.05Z"/>
      <path d="M55.35 23a23.22 23.22 0 0 1-2.12 4.66c-1.1 1.5-2.77 3.72-4.09 3.65-1.72-.09-3.7-1.85-4.89-3.41-.87-1.14-1.39-4-.75-4.53 1.16-1 3.3-1.1 5-1.1a61.81 61.81 0 0 1 6.85.73Z"/>
      <path d="M26.09 22.15a12.76 12.76 0 0 1 9.64-3.5c2.51.14 3.11 2.68 2 7.79-.48 2.27-1.94 3.49-4.28 2.88a2.86 2.86 0 0 1-1.8-1.92c-.13-3.32-2.39-4.34-5.56-5.25Z"/>
      <path d="M150.64 72.66a12.69 12.69 0 0 0-7.13-7.33c-2.32-1-4 1.06-5.22 6.13-.56 2.26.22 4 2.59 4.45a2.85 2.85 0 0 0 2.46-1c1.59-2.91 4.06-2.81 7.3-2.25Z"/>
      <path d="M89.72 13.36A10.85 10.85 0 0 1 98.85 15c1.86 1.3 1.08 3.72-2.25 7.47-1.48 1.67-3.2 2-4.71.38a2.78 2.78 0 0 1-.44-2.46c1.55-2.85.26-4.77-1.73-7.03Z"/>
      <path d="M0 58.31c1.67-2.26 3.08-4.39 4.73-6.31s4.5-2.49 6.06-.81 1.76 4.45 2.55 6.75c-2.15.66-4.27 1.75-6.46 1.86-2.02.09-4.1-.8-6.88-1.49Z"/>
      <path d="M134.21 77.14c-2.42-.52-4.66-.88-6.82-1.49s-3.56-2.67-2.69-4.49 3.1-2.94 4.73-4.37c1.27 1.45 2.88 2.74 3.7 4.42s.69 3.51 1.08 5.93Z"/>
      <path d="M9.47 71.1c-.15-2.28-.41-4.77-.43-7.25 0-.76.56-2.1 1.06-2.17 1.66-.24 3.82-.57 5 .13 1.61.93 3.49 2.84 3.41 4.26-.06 1.09-2.88 2.15-4.59 3.07s-3.27 1.45-4.45 1.96Z"/>
      <path d="M38.19 49.16a18 18 0 0 1 1.46-3.6c.79-1.17 2-2.91 3-2.89 1.31 0 2.86 1.28 3.81 2.42.7.84 1.18 3 .72 3.41-.85.78-2.46.94-3.77 1a46.36 46.36 0 0 1-5.22-.34Z"/>
      <path d="M117.1 54a17.39 17.39 0 0 1 1.45-3.6c.79-1.17 2-2.91 3-2.89 1.3 0 2.85 1.28 3.81 2.42.69.84 1.18 3 .71 3.41-.84.78-2.46.94-3.77 1a46 46 0 0 1-5.2-.34Z"/>
      <path d="M48.31 55.87c1.19-1.95 2.43-4.12 3.84-6.17.43-.62 1.6-1.44 2-1.25 1.33.63 3.06 1.44 3.53 2.61.62 1.57.87 4.07 0 5.19-.66.87-3.29.34-5 .24s-3.24-.49-4.37-.62Z"/>
      <path d="M144.8 57c-.93 2.08-1.88 4.39-3 6.61-.34.67-1.39 1.63-1.81 1.5-1.4-.46-3.22-1-3.83-2.14-.82-1.48-1.39-3.93-.68-5.15.55-.94 3.23-.76 5-.88a43.33 43.33 0 0 1 4.32.06Z"/>
      <path d="M55.69 17.59c-1.33-1.85-1.63-4.88 2.55-7.27a30.41 30.41 0 0 1 4.31-1.67C64 11.6 67 14.59 64.26 18.08c-2.51 3.22-5.39-.2-8.57-.49Z"/>
      <path d="M127.25 44.9c-1.41-2-1.73-5.17 2.7-7.7a32 32 0 0 1 4.57-1.78c1.55 3.13 4.69 6.3 1.81 10-2.66 3.41-5.71-.21-9.08-.52Z"/>
      <path d="M11.87 35.27c3.61 1.1 6.09.5 9.69 1.64a9.53 9.53 0 0 1 2.36 2.58c.18 1.08.54 2.63 0 3.17-1.46 1.53-2 4.58-4.87 4-.93-.18-3.38-3.33-3.82-4.72-1.06-3.4-.49-4.39-3.36-6.67Z"/>
      <path d="M117.57 4.48c-1.78 3.33-1.68 5.87-3.51 9.18a9.51 9.51 0 0 1-3 1.81c-1.09 0-2.68 0-3.1-.6-1.22-1.73-4.11-2.83-3-5.56.36-.87 3.94-2.66 5.38-2.82 3.56-.39 4.43.36 7.23-2.01Z"/>
      <path d="M79.72 0c2.7 2.89 5.32 4.59 8 7.5a5.22 5.22 0 0 1 .68 2.61c-.48 1-1.08 2.49-1.89 2.66-2.29.49-4.61 2.77-7 .73a4.56 4.56 0 0 1-.84-3.41C79.46 6.59 81 3.48 79.72 0Z"/>
      <path d="M112.3 26.14c.77-1.72 1.68-3.38 2.28-5.16.74-2.18 3.1-3.07 5.57-2.12 1.95.75 4 1.2 5.39 1.61-.8 1.18-2.27 3.27-3.64 5.42-2.13 3.33-9.84.16-9.6.25Z"/>
      <path d="M132.79 49.74c1.5-1.13 3.1-2.15 4.48-3.41 1.7-1.56 4.19-1.2 5.9.82 1.35 1.6 2.94 3 4 4-1.27.65-3.57 1.77-5.81 3-3.51 1.85-8.75-4.6-8.57-4.41Z"/>
      <path d="M114.92 38.11c-4.54 0-3.92-2.46-2.39-6.51a27.05 27.05 0 0 1 2-3.63c2.71 1.21 6.47 1.59 6.58 5.56.14 3.67-3.82 2.95-6.19 4.58Z"/>
      <path d="M28.23 54.43c-.21 2.27-2 4.76-6.68 3.83a30.85 30.85 0 0 1-4.36-1.55c.82-3.2.54-7.39 4.87-8.26 4-.79 3.94 3.67 6.17 5.98Z"/>
    </g>
  </g>
</svg>
