<?xml version="1.0" encoding="utf-8"?>
<!-- Generator: Adobe Illustrator 23.1.0, SVG Export Plug-In . SVG Version: 6.00 Build 0)  -->
<svg version="1.1" id="Layer_1" xmlns="http://www.w3.org/2000/svg" xmlns:xlink="http://www.w3.org/1999/xlink" x="0px" y="0px"
	 viewBox="0 0 150.6 150.5" style="enable-background:new 0 0 150.6 150.5;" xml:space="preserve">
<style type="text/css">
	.st0{fill-rule:evenodd;clip-rule:evenodd;fill:#C5AB71;}
</style>
<g>
	<path class="st0" d="M128.1,109.8c-2.4-2.6-5.4-2.3-8.5-0.8c-8.5,4-22.7,1-26.7-8.7c-0.9-1.5-0.6-3-0.8-4.8l0,0l0,0
		c-0.3-2.8-0.9-5.8-0.1-8.5c1.4-5.5-0.6-9,5.3-10.1c3.9-0.7,3.4-1.2,7.2-2.3l-0.1-0.8c-5.7,0.9-3.8-0.2-9.5,0.7l-0.5-0.8
		c4.6-3.6,1.3-5.8,6.3-8.7c2.6-1.5,6.4-1.1,9.7-0.9c2.4,0.1,4.8,1,7.1,1.8c3.8,1.2,7.3,0.9,11.2-0.1c3.3-0.8,7.1,0.2,10,0.4
		c-2.5-1.6-6.1-3.2-10.1-2c-3.8,1.2-7.2,0.7-10.8-0.5c-4.6-1.5-9.3-2.6-13.9-3.9c1.5-4,3.1-8.6,5.1-13.2c1.3-3.1,3.1-3.9,6.4-3
		c1.9,0.5,3.7,1.3,5.4,2.1c4,1.9,8.2,3,11.5,2.7l-15.7-6.1v-0.8c6.3-2.2,12.1-4.9,15.4-11.1c-5,5.6-11.3,8.3-18.6,9.2
		c-2.9,0.4-5.4,2.2-6.7,4.8c-1.4,2.3-2.4,4.9-3.6,7.3c-0.6,1-1.2,1.9-1.8,2.9l-0.2,0.8c-1,4.1-4.6,5.7-7.1,8.4l-1-0.4
		c0.6-1.8,1.2-3.5,1.8-5.3c0.8-2.8,2.2-5.5,2.1-8.3c-0.1-3.9,0.1-7.4,3-10.2c0,0,0,0,0,0c1.5,1.2,1.5,1,3.5,0.8c0.1,0,0.1,0,0.2,0
		c2.1-0.4,3.6-2.4,3.2-4.6c-0.3-1.4-0.4-2.8-0.5-4.1c-1.1,0.4-2.3,1-3.6,1.5c-4.4,1.6-4.7,2.6-2.9,6.3c-2.7,1.7-4.3,4.6-4.3,7.8
		c-0.3,2.8-0.7,5.6-1.3,8.3h-1.2c-0.8-3.8-2.1-7.5-2.3-11.2c0-2.3,0.8-4.5,2.3-6.2c3.1-3.7,7.4-6.2,12.1-7.2c2.9-0.7,5.5-2.5,8-4.2
		c1.7,0.6,7.3,2.3,9.1-0.4c1.4-2.2,2.8-4.2,3.6-5.4c-1.4-0.4-3.4-0.9-5.4-1.6c-2.5-1-4.8-0.1-5.6,2.1c-0.6,1.8-1.5,3.4-2.3,5.2
		c0,0,0.1,0,0.3,0.1l-12.2,4.5c1.1-7.1,2-13.3,3-19.6L103,11c-0.5,2-1,3.9-1.4,5.9c-0.5,2.3-0.9,4.6-1.3,6.9c-0.7,4-3,7.5-6.4,9.8
		c-2.3,1.6-4.2,3.7-6.4,5.6c-6.6-4.8-7.6-8-5.1-16.2c0.8-2.8,1.4-5.6,1.6-8.5l-4,12l-7.4-8.2c3.9,2.4,4.4-2,3.4-5.6l-2.8,3
		c-2.4,2.5-0.3,4.5,1.2,6.1c2.9,3.2,4.8,7.1,5.6,11.4c0.4,2.1,2.2,3.9,3.4,5.9c1.2,2.1,2.9,4.2,3.6,6.5c1.1,3.5,1.8,7,2,10.6
		c0.2,3.1-0.5,6.3-0.9,10c-5.3-7.5-5.9-16.5-12.5-22.7l5,10.9c-11.2-4.5-16.1-6.3-17-14c2.2-0.3,4.1-1.1,3.9-4.7l-4.1,2.6l-4.5-12.4
		c-0.1-2.3-0.2-4.7-0.3-7.4c2.1,0.9,4.1,2,5.9-0.3c2.7-3.5-0.3-6.5-1.7-9.4c-1.5,0.4-2.9,1-4.3,1.7c-4.2,2.4-3.9,5.4-2.5,7.3
		c0.9,0.1,1.8,0.4,2.7,0.8c-2,5.2,0,9.7,0.9,14.2l-0.1-0.1c0.5,1.7,1.2,3.4,1.6,5.2c0.7,3.5,1.2,6.9,1.8,10.4
		c-4.2-0.3-8-1.9-9.9-6.6c-0.7-1.7-1.6-3.3-2.4-5l0.1,0.1c-2-2.3-3.9-4.7-6-6.9c-1-0.8-2-1.5-3.1-2.1l-2.6-0.9
		c8,3.4,9.9,11.2,13.4,17.8c-0.2,0.3-0.4,0.5-0.6,0.8l-5.2-3.5l0.1,0.1c-3.9-3.2-7.9-6-13.4-5.1c5.4,0.3,9.3,3,12.9,6.9
		c1.9,2,4.9,3.1,7.6,4.2c5.3,2,10.7,3.7,16,5.7c2.1,0.8,4.1,1.8,6,2.9c7.2,4.4,8.8,12.7,4,19.7c-0.7,1-1.3,2.1-2.2,3.7
		c-2.1-3.3-4-6-5.6-8.9c-1.8-3.6-4.7-6.5-8.2-8.4c-2.7-1.5-5.3-3.1-8.2-4.7c4,5.3,11.8,6.4,13.9,13.6c-4.2-0.8-8.3-1.2-12.1-2.6
		c-2.2-0.8-4-3.2-5.8-5c-2-2.2-3.4-5.3-5.8-6.9c-3.2-2-6.8-3.3-10.5-4.1c-3.9-0.8-7.1-2.1-9-6.4c0.3,3.1,2.3,5.7,5.2,6.6
		c1.6,0.6,3.3,1.1,5,1.6L36,54.6c6.2,1,10,4.8,12.6,10.7c-3.9,0-19.9-0.4-23.4-1.2c-3.6-0.8-7.6-3.5-10.5-4.9c1.2,1.6,7.6,7.1,11,8
		c7.3,2,10.8,1.4,15.3,1.2c3.3-0.1,9.1-0.2,11.9,1.8c2.3,1.7,5.5,2.5,8.3,3.2c4,1,3.6,1.9,5.8,6c0.7,1.3,5.6,3.5,5.7,4.9
		c0.2,1.8,0.5,7.5,0.7,12l0,0c0.2,2.9,0.3,5.2,0.3,5.2c0.1,2.3-1.2,6.7-2.7,7c-4.9,0.9-18.5,2.2-23.9,0.4c-4.3-1.5-8.3-1.9-11.6,0.8
		c-5.2,4.3-10.2,3.2-16,1c-3.2-1.2-7-1.5-10.5-2.2v0.4l17,6.5l-8.8,3.7c2.2,0.2,4.4,0,6.5-0.7c4.3-1.7,8.3-3.9,12.6-5.6
		c2.1-0.8,4.6-1,7.9-1.7c-3.4,3.2-6.2,5.2-8.2,7.8c-2.2,2.9-12.9,5.7-16.7,5.6c-2.8-0.1-5.6,0.3-8.5,0.4l0.1,0.5l12.7,0.8
		c-2.2,3.9-5.9,4.9-9.6,6.1c-3.7,1.2-7,2.8-10.6,4.2l0.3,0.5l17.3-5l1.3,1.1l-4.4,6.3c2.1-1,5-2.4,5.3-4.1
		c0.8-5.2,12.4-10.7,15.6-14.6c4.4-5.3,19.4-7,26.9-5.5l6.2,0.2c-8.9,4.7-16.4,4.6-19.6,2.4c-3.9-2.7-6.6,2-9.4,6.2
		c5.4-3.7,6.3-6.2,9.4-3.7c-2.2,2-7.5,7.6-11.5,9.4c0.2,0.5,6.5-1.6,9.8-3.7c2.6-5.4,7.4-3.8,11.8-3.9c3.3-0.1,6.6-1.3,10-2.1
		c-5.8,6.6-11.6,12.7-20.8,10.9c0.2,0.4,0.4,0.8,0.6,1.3h11.1c-1.6,4.6-6.5,8.8-7.9,12.6c2.6-1.8,7.5-5.3,8.3-9
		c0.8-3.7,2.4-6.5,5.2-8.3c6.2-3.9,10.8-9.8,13.1-16.7c2,5,2.5,9.2,0.1,13c-1.9,2.9-4.3,5.3-6.5,7.8c-1.5,1.6-2.7,3.3-3.8,5.2
		l8.2-6.9l1.1,0.4c0,6.1-3.4,12.2-3.4,18.3c0.8-3.2,4.9-6.5,5.9-10.7c2.3,2.7,0.8,4.7,2.6,6.8h0.3c-0.9-1.7,1.9-3.7,0.7-5
		c-5.2-5.7-5.2-6.8-2-14.1c1.7-3.9,2.2-8.5,3.2-12.2c3.9,5.5,6.3,12.3,2.3,20.5c0.7-1.5,1.4-3,2-4.5c0.6-1.5,1.2-3.3,2-5.4
		c6.2,6,1.2,13.2-1,20.5c1-2.1,4.6-2.9,5.5-5c4.8,3.3,2.6,2.9,1.3,7.3c4-3.3,3.3-4.7,1.4-6.8c-4.4-5-0.8-4.7-1.3-11.8
		c4.1,0.8,13.9,0.1,14.1,4.8c0.2,4-2.8,7.6,0,10.7c1.3,1.4,1.3,4.3,1.9,6.6c0.7-3.2,0-6.5-2-9.1c-1.1-1.5,2.1-4,1.3-6.7
		c3.7,4.8,4.1,4.2,7.4,6.1l0.3-0.6c-1.2-1-2.4-2.3-3.7-2.9c-3.3-1.4-2.1-4.1-3.5-7.7c-1.6-4.2-11.5-3.5-15.1-5.2
		c-3.9-1.8-5.9-5.4-7.1-10.6c4.1,2,15.3,3.2,18.8,6.1c3.6,2.8,6,7.1,9.5,10.1l-5.5-7.5c5.7-1.5,6.7-0.8,7.8,4.8c0.6-4.8-1-7.1-5.1-7
		c-3,0-5-1.7-7-4.4c5.5-1.5,9.9-0.4,13.1,4.9c2.4,3.9,5.1,7.5,5.8,12.7c0.2,1.7,2.3,3.1,3.9,4.1c-1.1-2.1-2.2-4.2-3.3-6.3l0.9-1.1
		l12.8,5c0.1-0.1,0.2-0.3,0.3-0.5c-2.6-1.4-5.2-3.1-7.9-4.3c-2.7-1.2-5.5-2.2-7.1-6.1l9.4-0.8c0-0.2,0-0.3,0.1-0.5
		c-2.1-0.3-4.1-0.4-6.2-0.4c-2.8,0.1-4.9-0.8-6.6-3.8c-1.5-2.5-3.5-4.6-6.1-7.8c2.4,0.7,4.2,0.8,5.8,1.7c3.2,1.7,6.1,3.9,9.3,5.6
		c1.5,0.6,3.1,0.9,4.8,0.7l-6.5-3.7l12.5-6.4v-0.4c-2.6,0.7-5.3,0.9-7.7,2.2C135.7,113,132,114,128.1,109.8z"/>
	<path class="st0" d="M134.7,29.3c2.2-0.4,3.3-2.5,1.9-4.8c-0.9-1.3-1.5-2.7-2.3-4c-1,0.5-2.1,1.1-3.4,1.6c-4.3,1.9-4.2,2.9-0.5,6.5
		C132.7,29.8,132.5,29.6,134.7,29.3z"/>
	<path class="st0" d="M67.3,34.9c2.3,1.2,2.1,1,4.6,0.4c0.4-0.1,0.7-0.2,1-0.4c2-1.1,2.8-3.5,1.7-5.5c-0.8-1.6-1.3-3.2-1.9-4.7
		c-1.1,0.7-2.5,1.5-3.9,2.2C63.8,29.5,63.8,30.7,67.3,34.9z"/>
	<path class="st0" d="M32.6,36.5c0.7-1.5,0.6-1.4,0.1-3c-0.1-0.2-0.2-0.4-0.3-0.6c-0.8-1.2-2.4-1.6-3.6-0.8c-0.9,0.5-2,1-2.9,1.4
		c0.5,0.7,1.1,1.5,1.6,2.4C29.3,39,30.1,39,32.6,36.5z"/>
	<path class="st0" d="M75.9,42.8c1.6-0.3,1.5-0.3,2.5-1.6c0.1-0.2,0.2-0.4,0.3-0.6c0.6-1.3,0-2.9-1.3-3.4c-1-0.5-1.9-1.1-2.8-1.6
		c-0.3,0.8-0.7,1.8-1,2.6C72,41.5,72.5,42.1,75.9,42.8z"/>
	<path class="st0" d="M29.2,50.1c1.5,1.2,1.5,1,3.5,0.8c0.1,0,0.1,0,0.2,0c2.1-0.4,3.6-2.4,3.2-4.6c-0.3-1.3-0.4-2.8-0.5-4.1
		c-1,0.4-2.3,1-3.6,1.5C27.5,45.3,27.2,46.3,29.2,50.1z"/>
	<path class="st0" d="M28,76.3c1.4-1,3-2.4,3.3-3.9c0.2-0.8-2-2.8-3.3-3.1c-1.9-0.5-4.6-0.8-6,0.2c-1.1,0.7-1,3.5-1,5.4
		c0.2,1.7,0.6,3.4,1.1,5C24.2,78.8,26.1,77.6,28,76.3z"/>
	<path class="st0" d="M121,68.3c-1.7-1-4.2-1.8-5.8-1.2c-1.2,0.5-1.9,3.2-2.3,5c-0.2,1.7-0.3,3.4-0.1,5.1c2.2-0.6,4.4-1.2,6.6-2.1
		c1.6-0.7,3.5-1.6,4.2-3C123.8,71.4,122.2,69,121,68.3z"/>
	<path class="st0" d="M49.1,31.3c1.3,0.1,3-2.2,4.1-3.7c0.9-1.5,1.6-3,2.1-4.7c-2.3-0.4-4.6-0.6-6.8-0.7c-1.7,0-3.8,0.1-5,1.1
		c-0.6,0.5-0.1,3.4,0.8,4.5C45.4,29.5,47.4,31.2,49.1,31.3z"/>
	<path class="st0" d="M31.7,27.4c0.3,0.9,0.9,1.6,1.8,1.9c2.3,0.6,3.8-0.6,4.3-2.9c1.1-5.1,0.5-7.7-2-7.8c-3.6-0.2-7.1,1-9.6,3.5
		C29.3,23.1,31.5,24.1,31.7,27.4z"/>
	<path class="st0" d="M143.5,65.3c-2.3-1-4,1.1-5.2,6.1c-0.6,2.3,0.2,4,2.6,4.5c0.9,0.1,1.9-0.3,2.5-1c1.6-2.9,4.1-2.8,7.3-2.2
		C149.4,69.3,146.8,66.7,143.5,65.3z"/>
	<path class="st0" d="M91.5,20.4c-0.3,0.8-0.1,1.8,0.4,2.5c1.5,1.6,3.2,1.3,4.7-0.4c3.3-3.8,4.1-6.2,2.2-7.5c-2.6-1.9-6-2.5-9.1-1.6
		C91.7,15.6,93,17.5,91.5,20.4z"/>
	<path class="st0" d="M13.3,57.9c-0.8-2.3-1-5.1-2.6-6.8S6.4,50.1,4.7,52c-1.6,1.9-3.1,4-4.7,6.3c2.8,0.7,4.9,1.6,6.9,1.5
		C9.1,59.7,11.2,58.6,13.3,57.9z"/>
	<path class="st0" d="M124.7,71.2c-0.9,1.8,0.5,3.9,2.7,4.5c2.2,0.6,4.4,1,6.8,1.5c-0.4-2.4-0.3-4.2-1.1-5.9s-2.4-3-3.7-4.4
		C127.8,68.2,125.6,69.3,124.7,71.2z"/>
	<path class="st0" d="M9,63.8c0,2.5,0.3,5,0.4,7.2c1.2-0.5,2.7-1,4.5-2c1.7-0.9,4.5-2,4.6-3.1c0.1-1.4-1.8-3.3-3.4-4.3
		c-1.2-0.7-3.3-0.4-5-0.1C9.6,61.8,9,63.1,9,63.8z"/>
	<path class="st0" d="M46.5,45.1c-1-1.1-2.5-2.4-3.8-2.4c-1,0-2.2,1.7-3,2.9c-0.6,1.1-1.1,2.4-1.5,3.6c1.7,0.2,3.5,0.3,5.2,0.3
		c1.3-0.1,2.9-0.2,3.8-1C47.6,48.1,47.2,45.9,46.5,45.1z"/>
	<path class="st0" d="M121.5,47.5c-1,0-2.2,1.7-3,2.9c-0.6,1.1-1.1,2.3-1.5,3.6c1.7,0.2,3.5,0.3,5.2,0.3c1.3-0.1,2.9-0.2,3.8-1
		c0.5-0.4,0-2.6-0.7-3.4C124.4,48.8,122.8,47.5,121.5,47.5z"/>
	<path class="st0" d="M57.7,56.3c0.9-1.1,0.6-3.6,0-5.2c-0.5-1.2-2.2-2-3.5-2.6c-0.4-0.2-1.6,0.6-2,1.2c-1.4,2.1-2.7,4.2-3.8,6.2
		c1.1,0.1,2.7,0.5,4.4,0.6C54.4,56.6,57,57.1,57.7,56.3z"/>
	<path class="st0" d="M135.5,57.8c-0.7,1.2-0.1,3.7,0.7,5.1c0.6,1.1,2.4,1.7,3.8,2.1c0.4,0.1,1.5-0.8,1.8-1.5c1.1-2.2,2.1-4.5,3-6.6
		h0c-1.4-0.1-2.9-0.1-4.3-0.1C138.7,57.1,136,56.9,135.5,57.8z"/>
	<path class="st0" d="M130,37.2c-4.4,2.5-4.1,5.7-2.7,7.7c3.4,0.3,6.4,3.9,9.1,0.5c2.9-3.7-0.3-6.9-1.8-10
		C133,35.9,131.4,36.5,130,37.2z"/>
	<path class="st0" d="M15.2,41.9c0.4,1.4,2.9,4.5,3.8,4.7c2.9,0.6,3.4-2.5,4.9-4c0.5-0.5,0.2-2.1,0-3.2c-0.6-1-1.4-1.9-2.4-2.6
		c-3.6-1.1-6.1-0.5-9.7-1.6C14.7,37.6,14.2,38.5,15.2,41.9z"/>
	<path class="st0" d="M108,14.9c0.4,0.6,2,0.6,3.1,0.6c1.1-0.4,2.1-1,3-1.8c1.8-3.3,1.7-5.8,3.5-9.2c-2.8,2.4-3.7,1.6-7.2,2
		c-1.4,0.2-5,2-5.4,2.8C103.8,12,106.7,13.1,108,14.9z"/>
	<path class="st0" d="M86.5,12.8c0.8-0.2,1.4-1.7,1.9-2.7c0-0.9-0.2-1.8-0.7-2.6c-2.7-2.9-5.3-4.6-8-7.5c1.3,3.5-0.3,6.6-1.1,10.1
		c-0.2,1.2,0.1,2.4,0.8,3.4C81.9,15.5,84.2,13.3,86.5,12.8z"/>
	<path class="st0" d="M132.8,49.7c-0.2-0.2,5.1,6.3,8.6,4.4c2.2-1.2,4.5-2.3,5.8-3c-1.1-1-2.6-2.4-4-4c-1.7-2-4.2-2.4-5.9-0.8
		C135.9,47.6,134.3,48.6,132.8,49.7z"/>
	<path class="st0" d="M112.5,31.6c-1.5,4-2.2,6.5,2.4,6.5c2.4-1.6,6.3-0.9,6.2-4.6c-0.1-4-3.9-4.3-6.6-5.6
		C113.8,29.1,113.1,30.3,112.5,31.6z"/>
	<path class="st0" d="M22.1,48.5c-4.3,0.9-4,5.1-4.9,8.3c1.4,0.6,2.9,1.1,4.4,1.6c4.7,0.9,6.5-1.6,6.7-3.8
		C26,52.1,26.1,47.7,22.1,48.5z"/>
</g>
</svg>
