<svg xmlns="http://www.w3.org/2000/svg" data-name="Layer 2" viewBox="0 0 229.7313 210.971">
  <path d="M216.3372 155.7998a76.55 76.55 0 0 1-15.13-34.06c-1.51-8.32-1.39-16.82-3.12-25.16a126.54 126.54 0 0 0-8.57-26.43c-16.61-36.9-58.68-75.53-102.45-69.53-15.91 2.18-28.78 11.49-36.45 25.4-1.52 2.74-18.38 39.69-21.88 45.17-6.31-2.2-18.62-7.87-24.18-10.47a3.2 3.2 0 0 0-4.23 1.49 3.2 3.2 0 0 0 1.61 4.35c6.59 2.85 21.61 9.41 23.52 11-2.6 6.26-14 27.64-15.33 30.18-8.2 15.21-13.32 34.86-7.51 51.87 15.9 46.58 69.62 57.79 112.79 48.21 18.47-4.1 34.65-12.24 50.9-21.63 10.46-6.05 24.31-18.2 37-17.58a23.84 23.84 0 0 1 12 4.36c4.63 3.1 8.61 7.58 9.78 13 1.24 5.77-.84 11.77-3.77 16.89 3.55-2.73 6-5 7.47-9.42a24.28 24.28 0 0 0 .23-12.55c-1.92-9.15-7.03-17.74-12.68-25.09zm-104.84-46a276.43 276.43 0 0 1-31.26-14.73c28.14-22.59 51.44-35.91 90.46-40.6a117 117 0 0 1 13.14 22.32l-2.33.21c-14.09 1.25-27.39 2.44-39.49 9.36-2.8 1.61-5.45 3-8 4.28-8.85 4.51-16.53 8.46-22.52 19.16zm-.34 8.66a208.84 208.84 0 0 1 21.21 9.46c.61.3 5.87 2.93 6.57 4.2-.84 11.23.81 24.26 2.85 40.33.52 4.07 1.05 8.26 1.58 12.69-6.65 2.69-13.38 5.17-20.18 7.28-6.67-13.68-7.23-16.64-8.08-30.61a130.58 130.58 0 0 0-3.4-21.32c-2-9.04-3.49-15.83-.55-22.03zm32.62 53.79c-2-15.55-3.59-28.23-2.91-39.07 7.9 3.59 12.48 5.69 18 9.81.2 6.17 1 20.64 4.47 33.52-5.93 2.72-11.93 5.39-18 7.89-.56-4.28-1.06-8.29-1.56-12.15zm.64-46.82c7.92-12.53 20.95-18 40.35-26l5.64-2.35c.41 2 .78 4 1.05 6 .68 5.06 1.13 10.67 1.73 16.42-3.49 1.89-7.23 3.72-11.16 5.63a188 188 0 0 0-20.1 10.81 94.21 94.21 0 0 1-17.51-10.56zm45.57-30.36-6 2.5c-19.83 8.23-33.12 13.78-41.36 26.94l-1.08-.57c-1-.46-3.11-1.1-4.06-1.56-8.4-4.09-15.66-6.68-24.18-11.69 5.67-10.06 12.75-13.7 21.59-18.22 2.59-1.33 5.26-2.69 8.1-4.32 11.72-6.71 24.81-7.88 38.66-9.11l3-.27a99.08 99.08 0 0 1 5.33 16.25zm-28.78-51.82a122.61 122.61 0 0 1 8.1 9.42c-39.15 4.91-62.58 18.52-91.07 41.49a78.28 78.28 0 0 1-15.33-7.3c5.4-8.55 12.35-13.94 20.34-20.11 4.2-3.25 8.54-6.61 13.13-10.76 13.72-12.42 30.68-24.66 53.32-23.38a127.51 127.51 0 0 1 11.51 10.64zm-118.37 34.93a15.85 15.85 0 0 0-2.81-2c.81-.64 1.7-1.32 2.69-2.08a133.74 133.74 0 0 0 22.12-20.52c11.45-13.24 29.67-31.22 57.21-37.53a102.59 102.59 0 0 1 25 14.41c-22-.24-38.54 11.79-52 24-4.54 4.11-8.85 7.44-13 10.67-8.21 6.34-15.34 11.87-20.94 20.83-6.1-2.86-12.06-4.04-18.27-7.78zm-8.22-4.85c7.59-14.61 12.42-25.24 18.7-39.36 8.43-18.93 32-24.66 50.73-22.5a70.39 70.39 0 0 1 14.57 3.35c-26.46 7-44.11 24.47-55.35 37.45a129.62 129.62 0 0 1-21.76 20.27c-1.32 1-2.46 1.88-3.47 2.71a23.06 23.06 0 0 1-3.2-1.37.38.38 0 0 1-.18-.55zm-24.78 70.92c-1.48-22.7 10.6-44.28 21.16-63.5a.72.72 0 0 1 .92-.32c.74.31 1.47.65 2.21 1-2 7.65-2.44 23.8-1.42 50.35.11 2.76.19 5.45.27 8.07.51 17 1 31.93 8 51.11-16.84-8.98-29.95-28.13-31.14-46.71zm33.74 48c-7.6-19.86-8.08-35.08-8.6-52.48-.08-2.63-.16-5.32-.27-8.09-.4-10.29-1.48-38.52 1.23-49.48 4.62 2 9.07 3.47 13.74 6.3.36 4.17 1.24 14.91 1.73 26.53a87.14 87.14 0 0 1-.47 13.42 50.25 50.25 0 0 0 1 18.33c.8 3.62 1.47 7.19 2.18 11a345.43 345.43 0 0 0 9.72 40.31 98.5 98.5 0 0 1-16.3-4.21c-1.36-.47-2.7-1.01-3.98-1.63zm22.45 6.18a341.72 341.72 0 0 1-9.95-41.05c-.72-3.8-1.39-7.38-2.19-11a47.75 47.75 0 0 1-1-17.71 89.32 89.32 0 0 0 .47-13.7c-.44-10.67-1.22-20.61-1.63-25.43a151.83 151.83 0 0 1 23.4 11.62 216.52 216.52 0 0 0 .24 38.84c2.14 19.43 5.08 29.69 17.54 58.9a108.41 108.41 0 0 1-26.9-.45zm29 .21c-12.55-29.41-15.5-39.58-17.62-58.89a212.37 212.37 0 0 1-.3-37.65c6.65 2.35 13 5.71 19.57 8.76 4.23 2 8.49 4.71 12.71 6.71-3.24 6.84-1.62 14.22.4 23.34a129.16 129.16 0 0 1 3.35 21c.86 14.09 1.51 17.44 8.15 31.09a155.87 155.87 0 0 1-26.29 5.66zm70.13-23.07c-3.11-11.86-4-25-4.27-31.57 4.41 2.33 9.74 4.06 14.2 6.16a105.22 105.22 0 0 0 24.36 8.4c-8.07.08-24.73 12.23-34.32 17.03zm17.06-29.85c-5.29-2.13-10.43-3.78-15.46-6.46-.95-.51-1.94-1.76-2.87-2.29a196.51 196.51 0 0 1 19-10.14c3.69-1.79 7.21-3.5 10.52-5.27 1.22 11 3.17 22.38 8.52 30.94-1.71-2.74-16.17-5.33-19.74-6.76z"/>
</svg>
