<svg xmlns="http://www.w3.org/2000/svg" viewBox="0 0 150.64 150.48">
  <g>
    <g>
      <g fill="#fff" stroke="#fff" stroke-linecap="round" stroke-linejoin="round" stroke-width=".56693">
        <path d="M7.08 99.17a2.26 2.26 0 0 0 .51-1.78V85.07a4.62 4.62 0 0 0-.25-1.89 1.62 1.62 0 0 0-1.27-.79v-.82h5.2c1.78 0 4.38.31 4.38 3.9a4.15 4.15 0 0 1-3.25 4.29v.38a4.17 4.17 0 0 1 2.9 1.46 4.67 4.67 0 0 1 .75 2.65c0 4.31-2.62 5.31-4.91 5.31H7.09Zm6.32-13.49c0-2.58-1.38-3-2.74-3-.85 0-.85.23-.85 1.46v5.61c1.75-.04 3.59-.83 3.59-4.07Zm.25 8.52a3.14 3.14 0 0 0-1.93-3.2 5.46 5.46 0 0 0-1.91-.31v5.84c0 .87 0 2 .63 2 1.76-.04 3.21-1.37 3.21-4.33Z"/>
        <path d="M19.13 92.13v-.36c0-1.07-.09-1.52-1.2-1.52v-.39h2.81A49.82 49.82 0 0 0 20.5 95c0 1.72.53 3.11 2.29 3.11a2.85 2.85 0 0 0 1.51-.38c0-2.5 0-6.09-.08-7.49l1.64-.6.16.12a65.8 65.8 0 0 0-.25 6.74 2.81 2.81 0 0 0 .23 1.34.84.84 0 0 0 .59.15 5.06 5.06 0 0 0 .68 0v.35l-1.95.58a1.46 1.46 0 0 1-.4.07.63.63 0 0 1-.61-.7 7.08 7.08 0 0 1-2.62.66c-2.07 0-2.61-1.3-2.61-3.42-.03-.99.01-2.29.05-3.4Z"/>
        <path d="M29.3 98.63a1.59 1.59 0 0 0 .24-.51V92a5.15 5.15 0 0 0-.08-1.16c-.12-.45-.59-.49-.95-.54v-.4h4.84c2.49 0 4.17 1 4.17 4 0 3.37-2.2 4.91-5 4.91H29.3Zm2.84-.37c2.51 0 3.65-1.6 3.65-4.28 0-2.84-1.27-3.54-3.62-3.54-1 0-1 0-1 1v5a12.08 12.08 0 0 0 .08 1.35c.03.47.57.47.89.47Z"/>
        <path d="M39.92 98.63a1.59 1.59 0 0 0 .24-.51V92a5.15 5.15 0 0 0-.08-1.16c-.12-.45-.59-.49-.95-.54v-.4H44c2.49 0 4.17 1 4.17 4 0 3.37-2.2 4.91-5 4.91h-3.25Zm2.84-.37c2.5 0 3.65-1.6 3.65-4.28 0-2.84-1.27-3.54-3.62-3.54-1 0-1 0-1 1v5a12.08 12.08 0 0 0 .08 1.35c.03.47.57.47.89.47Z"/>
        <path d="M50.82 94.22V91c0-.44-.75-.61-1.06-.67v-.4h2.67c0 .62-.06 1.29-.08 1.92s-.05 1.27-.05 1.81a.56.56 0 0 0 .54.21h2.92c.24 0 .55 0 .55-.32v-3.43l1.58-.39.12.14c-.14 1.45-.19 2.92-.19 4.39v3.34a.84.84 0 0 0 .89.79v.4l-2.34.1-.26-.27c.11-1.26.16-2.53.16-3.8 0-.32-.18-.35-.43-.35h-3.18c-.23 0-.33.12-.33.36 0 1.2 0 2.4.07 3.59l-1.55.45-.08-.11c.04-1.52.05-3.02.05-4.54Z"/>
        <path d="M60 98.68a85.62 85.62 0 0 0 4.25-7.89v-.11c-.36-.06-.86-.14-1.09-.16v-.47h2.58c.33 1.55.84 3.2 1.27 4.74.21.75.81 3.22 1.65 3.22a3.2 3.2 0 0 0 .67-.1l.07.36a5.4 5.4 0 0 1-2.07.72c-.69 0-1-.65-1.11-1.28-.13-.48-.39-1.54-.59-2.32h-2.87a35 35 0 0 0-1.27 3.28l-1.44.14Zm3.16-3.94h2.25c-.27-1-.66-2.44-.85-3h-.1c-.39.71-.92 1.95-1.35 2.94Z"/>
        <path d="M98.84 85.17c0-2.35-.13-2.45-1.58-2.73v-.77h3.17c2.11 4.34 4.38 8.5 6.7 12.58h.18L107.06 82l1.23-.66.31.33c-.17 3.47-.32 6.94-.38 10.41v3.52c0 1.17 0 2.53.08 3.78h-1.2l-7.35-13.55-.16.1.41 12.74-1.26.91-.18-.2c.15-4.75.28-9.47.28-14.21Z"/>
        <path d="M112 92.67a15.42 15.42 0 0 0 0-1.67c-.11-.56-.62-.61-1.08-.69v-.38a51.58 51.58 0 0 0 5.72-.19v.89l-.13.14-2.66-.18c-.36 0-.38.3-.38.63v2.28c0 .13.09.34.23.34s1.67-.12 2.52-.18c0 0 0 0 0 0l.14.1v.74h-2.61c-.22 0-.32.09-.32.35a20.88 20.88 0 0 0 .09 2.46c.09.57.31.78.84.78h.12l3.1-.19.13.1-.31 1c-1.3-.09-2.61-.1-3.91-.1a6.87 6.87 0 0 1-1.11 0 2 2 0 0 1-.37-.6Z"/>
        <path d="m119.11 98.48 3.21-4c-.68-1.23-1.37-2.43-2.07-3.64-.19-.32-.8-.46-1.14-.55v-.41l2.4-.07c.54 1.16 1.15 2.28 1.78 3.4l2.3-3.13 1.29-.22v.36a29.38 29.38 0 0 0-3.24 3.63c.71 1.3 2 3.74 3.24 4.41v.23L125 99c-.58-.83-1.53-2.51-2.25-3.79a31.11 31.11 0 0 0-2.39 3.39l-1.21.25Z"/>
        <path d="M129.45 92.13v-.36c0-1.07-.1-1.52-1.2-1.52v-.39h2.81a49.82 49.82 0 0 0-.24 5.19c0 1.72.53 3.11 2.29 3.11a2.85 2.85 0 0 0 1.51-.38c0-2.5 0-6.09-.08-7.49l1.64-.6.16.12a65.8 65.8 0 0 0-.25 6.74 2.81 2.81 0 0 0 .18 1.33.82.82 0 0 0 .59.15 5.06 5.06 0 0 0 .68 0v.35l-1.95.58a1.46 1.46 0 0 1-.4.07.63.63 0 0 1-.61-.7 7.08 7.08 0 0 1-2.62.66c-2.07 0-2.61-1.3-2.61-3.42.02-1.03.06-2.33.1-3.44Z"/>
        <path d="m140.31 96.3.2.09a1.82 1.82 0 0 0 1.64 2 1.56 1.56 0 0 0 1.47-1.57c0-1-1.18-1.66-1.87-2.06-.85-.5-2-1.36-2-2.55 0-1.93 1.51-2.59 3-2.59 1 0 1.87.15 2.3 1.28l-1.08 1-.2-.08c-.11-.93-.65-1.67-1.55-1.67a1.17 1.17 0 0 0-1.22 1.21c0 1.14 1 1.68 1.81 2.13 1 .55 2.19 1.2 2.19 2.6 0 1.91-2 2.91-3.49 2.91a2.67 2.67 0 0 1-2.33-1.29Z"/>
      </g>
      <g fill="#c5ab71" fill-rule="evenodd">
        <path d="M128.09 109.77c-2.37-2.64-5.36-2.3-8.52-.8-8.5 4-22.71 1-26.74-8.74-.9-1.5-.61-3-.78-4.77-.28-2.79-.85-5.81-.11-8.52 1.41-5.52-.58-9 5.27-10.1 3.89-.74 3.41-1.24 7.24-2.31l-.09-.79c-5.73.91-3.82-.18-9.55.73l-.5-.76c4.61-3.63 1.28-5.79 6.3-8.7 2.56-1.49 6.42-1.06 9.67-.92a26.13 26.13 0 0 1 7.08 1.79c3.75 1.19 7.27.88 11.15-.09 3.32-.83 7.11.2 10 .37-2.53-1.61-6.06-3.24-10.07-2-3.78 1.2-7.2.7-10.84-.52-4.56-1.52-9.27-2.61-13.94-3.9 1.51-4 3.15-8.64 5.06-13.2 1.29-3.08 3.09-3.86 6.36-3a33.31 33.31 0 0 1 5.44 2.12c4 1.92 8.22 3 11.52 2.68l-15.65-6.11v-.85c6.26-2.21 12.14-4.92 15.43-11.11-5 5.59-11.31 8.26-18.57 9.18a9 9 0 0 0-6.71 4.75c-1.37 2.35-2.39 4.9-3.64 7.33a32.88 32.88 0 0 1-1.82 2.86l-.21.83c-1 4.08-4.57 5.74-7.12 8.37l-1-.42c.59-1.78 1.23-3.55 1.75-5.35.81-2.76 2.19-5.55 2.14-8.31-.07-3.89.11-7.42 3-10.22 1.53 1.24 1.46 1 3.53.77h.2a3.94 3.94 0 0 0 3.17-4.58c-.28-1.35-.38-2.77-.54-4.06-1.06.44-2.31 1-3.56 1.49-4.42 1.62-4.73 2.64-2.88 6.26a9 9 0 0 0-4.27 7.8A77.31 77.31 0 0 1 94 55.24h-1.19C92 51.49 90.74 47.77 90.48 44a9.74 9.74 0 0 1 2.3-6.23 21.54 21.54 0 0 1 12.08-7.19c2.86-.67 5.46-2.47 8-4.25 1.73.61 7.32 2.32 9.09-.44 1.37-2.15 2.84-4.24 3.64-5.42-1.39-.41-3.44-.86-5.39-1.61-2.47-.95-4.83-.06-5.57 2.12-.6 1.78-1.51 3.44-2.28 5.16l.35.13-12.22 4.53c1.09-7.06 2-13.35 3-19.63L103 11c-.48 2-1 3.92-1.43 5.89-.5 2.29-.93 4.59-1.35 6.9a14.91 14.91 0 0 1-6.43 9.75c-2.26 1.63-4.23 3.67-6.42 5.59-6.61-4.75-7.61-8-5.07-16.17a41.46 41.46 0 0 0 1.59-8.48l-4 12-7.36-8.24c3.91 2.36 4.44-2 3.39-5.57l-2.85 3c-2.4 2.54-.3 4.48 1.17 6.06a22.87 22.87 0 0 1 5.56 11.39C80.2 35.2 82 37 83.16 39s2.88 4.18 3.6 6.5a45.77 45.77 0 0 1 2 10.63c.2 3.1-.51 6.26-.89 10C82.6 58.6 82 49.62 75.41 43.4l5 10.94c-11.22-4.47-16.1-6.27-16.95-14 2.2-.35 4.15-1.09 3.89-4.72l-4.13 2.59-4.5-12.45c-.11-2.32-.21-4.66-.34-7.36 2.13.91 4.1 2 5.88-.32C67 14.59 64 11.6 62.55 8.65a30 30 0 0 0-4.31 1.67c-4.18 2.39-3.88 5.42-2.55 7.27a9 9 0 0 1 2.68.8c-2 5.15 0 9.66 1 14.22l-.1-.1c.53 1.72 1.2 3.41 1.56 5.16.7 3.45 1.24 6.93 1.85 10.41-4.23-.29-8-1.92-9.93-6.56-.7-1.69-1.58-3.31-2.38-5l.1.09c-2-2.31-3.92-4.69-6-6.9a16.57 16.57 0 0 0-3.12-2.07l-2.65-.91c8 3.42 9.9 11.17 13.38 17.77-.21.27-.42.54-.64.8l-5.2-3.54.1.11c-3.89-3.19-7.91-6-13.43-5.08 5.37.32 9.26 3 12.87 6.87 1.87 2 4.88 3.12 7.56 4.16 5.26 2 10.68 3.7 16 5.66a34.34 34.34 0 0 1 6 2.93c7.19 4.4 8.84 12.69 4 19.7-.69 1-1.27 2.12-2.2 3.69-2.06-3.26-4-6-5.57-8.91a19.44 19.44 0 0 0-8.25-8.44c-2.72-1.45-5.34-3.06-8.19-4.71 4 5.26 11.78 6.4 13.87 13.57-4.15-.82-8.3-1.18-12.08-2.57-2.24-.83-4-3.15-5.77-5-2-2.21-3.4-5.3-5.8-6.85a32.05 32.05 0 0 0-10.46-4.07c-3.89-.82-7.1-2.14-9-6.39a7.67 7.67 0 0 0 5.23 6.64c1.61.63 3.3 1.1 4.95 1.64l-.07-.06c6.2 1 10 4.76 12.6 10.71-3.92 0-19.9-.39-23.45-1.19s-7.63-3.51-10.45-4.87c1.18 1.58 7.61 7.13 11 8 7.3 2 10.76 1.4 15.3 1.22 3.33-.14 9.07-.22 11.87 1.81 2.34 1.7 5.46 2.46 8.34 3.22 4 1 3.64 1.92 5.76 6 .69 1.33 5.6 3.45 5.74 4.9.17 1.79.46 7.51.69 12 .17 2.89.28 5.19.28 5.19.13 2.33-1.25 6.7-2.7 7-4.94.93-18.48 2.24-23.89.35-4.28-1.51-8.33-1.85-11.56.79-5.25 4.3-10.25 3.24-16 1-3.22-1.25-7-1.5-10.46-2.19v.41l17 6.47-8.79 3.71a16.87 16.87 0 0 0 6.47-.7c4.29-1.69 8.3-3.92 12.58-5.63 2.11-.83 4.57-1 7.85-1.68-3.36 3.21-6.18 5.26-8.18 7.83-2.25 2.91-12.88 5.73-16.7 5.63-2.81-.08-5.64.26-8.45.41l.09.49 12.74.83c-2.16 3.89-5.91 4.87-9.63 6.08s-7 2.79-10.65 4.23l.35.48 17.32-5 1.26 1.07-4.42 6.33c2.09-1 5-2.39 5.26-4.08.84-5.19 12.38-10.67 15.63-14.61 4.36-5.29 19.36-7 26.87-5.45l6.21.16c-8.88 4.67-16.43 4.65-19.62 2.43-3.89-2.68-6.59 2-9.4 6.22 5.35-3.68 6.27-6.17 9.35-3.71-2.2 2-7.45 7.63-11.45 9.42.24.45 6.5-1.64 9.83-3.73 2.64-5.37 7.4-3.76 11.75-3.92 3.3-.12 6.57-1.35 10-2.12-5.76 6.61-11.57 12.67-20.84 10.91.18.43.37.85.56 1.28h11.13c-1.63 4.57-6.51 8.77-7.89 12.64 2.62-1.76 7.49-5.28 8.26-9s2.39-6.51 5.18-8.3A31.4 31.4 0 0 0 81.88 111c2 5 2.54 9.21.09 13-1.86 2.89-4.32 5.27-6.52 7.85a27.36 27.36 0 0 0-3.81 5.2l8.18-6.93 1.12.42c0 6.13-3.38 12.25-3.38 18.28.75-3.24 4.87-6.45 5.85-10.69 2.35 2.66.78 4.71 2.59 6.75h.35c-.88-1.7 1.91-3.73.71-5-5.23-5.68-5.2-6.84-2-14.11 1.72-3.91 2.25-8.53 3.16-12.2 3.89 5.5 6.3 12.33 2.3 20.53.68-1.49 1.39-3 2-4.47s1.25-3.33 2-5.43c6.17 6 1.16 13.22-1 20.49 1-2.11 4.58-2.86 5.54-5 4.83 3.34 2.59 2.95 1.29 7.28 4-3.34 3.26-4.74 1.45-6.78-4.41-5-.8-4.69-1.34-11.8 4.1.78 13.9.14 14.14 4.81.2 4-2.83 7.63 0 10.69 1.27 1.37 1.3 4.31 1.9 6.56a11.36 11.36 0 0 0-2-9.15c-1.1-1.54 2.1-4 1.3-6.66 3.68 4.81 4.09 4.24 7.42 6.14l.32-.59c-1.23-1-2.36-2.3-3.72-2.89-3.32-1.42-2.13-4.1-3.5-7.69-1.62-4.22-11.53-3.49-15.08-5.16-3.89-1.83-5.93-5.36-7.09-10.57 4.06 2 15.29 3.24 18.85 6.07s6 7.08 9.52 10.13l-5.52-7.54c5.72-1.54 6.74-.85 7.78 4.79.57-4.79-1-7.07-5.14-7-3 0-5-1.74-7-4.42 5.54-1.52 9.91-.39 13.12 4.9 2.4 3.94 5.14 7.54 5.77 12.73.2 1.69 2.34 3.07 3.88 4.08q-1.64-3.17-3.26-6.33l.93-1.07 12.77 5c.09-.15.17-.32.26-.47-2.62-1.44-5.17-3.07-7.87-4.26s-5.51-2.19-7.11-6.09l9.4-.83a1.15 1.15 0 0 1 .07-.48 56.5 56.5 0 0 0-6.23-.41c-2.82.1-4.89-.84-6.56-3.75-1.45-2.54-3.54-4.59-6.08-7.78 2.42.67 4.23.84 5.78 1.68 3.17 1.71 6.12 3.94 9.29 5.63a9.29 9.29 0 0 0 4.77.7l-6.48-3.72 12.5-6.44v-.42c-2.59.69-5.35.94-7.72 2.19-4.21 2.23-7.87 3.23-11.78-1Z"/>
        <path d="M134.72 29.26c2.24-.38 3.33-2.52 1.88-4.77-.86-1.31-1.55-2.72-2.26-4-1 .51-2.14 1.14-3.38 1.64-4.33 1.86-4.2 2.89-.5 6.55 2.21 1.16 2.02.96 4.26.58Z"/>
        <path d="M67.33 34.88c2.26 1.25 2.12 1 4.59.43a4 4 0 0 0 1-.37 4.1 4.1 0 0 0 1.71-5.53c-.76-1.56-1.31-3.22-1.91-4.73-1.15.66-2.51 1.52-3.94 2.2-5 2.58-5 3.81-1.45 8Z"/>
        <path d="M32.63 36.54c.7-1.5.56-1.4.07-2.95a3 3 0 0 0-.28-.63 2.62 2.62 0 0 0-3.6-.83c-.92.55-2 1-2.92 1.44.47.7 1.1 1.52 1.61 2.43 1.84 3 2.63 3 5.12.54Z"/>
        <path d="M75.88 42.79c1.63-.27 1.47-.32 2.47-1.6a2.88 2.88 0 0 0 .34-.56 2.61 2.61 0 0 0-1.34-3.44c-1-.48-1.93-1.09-2.83-1.61-.31.79-.65 1.75-1 2.64-1.52 3.25-1.07 3.87 2.36 4.57Z"/>
        <path d="M29.16 50.05c1.53 1.24 1.46 1 3.53.77h.2a3.94 3.94 0 0 0 3.17-4.58c-.28-1.35-.38-2.76-.54-4.06-1 .44-2.29 1-3.56 1.49-4.48 1.61-4.74 2.63-2.8 6.38Z"/>
        <path d="M28 76.31c1.38-1 3-2.42 3.33-3.91.18-.83-2-2.77-3.34-3.15-1.93-.52-4.57-.75-6 .25-1.05.74-1 3.52-1 5.38a23.82 23.82 0 0 0 1.13 5A61.78 61.78 0 0 0 28 76.31Z"/>
        <path d="M121 68.34c-1.71-1-4.22-1.79-5.84-1.2-1.23.48-1.89 3.18-2.3 5a23 23 0 0 0-.11 5.11 60.72 60.72 0 0 0 6.56-2c1.59-.68 3.51-1.63 4.18-3 .33-.81-1.28-3.25-2.49-3.91Z"/>
        <path d="M49.14 31.31c1.32.07 3-2.15 4.09-3.65A22.77 22.77 0 0 0 55.35 23a62.88 62.88 0 0 0-6.85-.73c-1.7 0-3.84.1-5 1.1-.64.53-.12 3.39.75 4.53 1.19 1.56 3.17 3.32 4.89 3.41Z"/>
        <path d="M31.65 27.4a2.86 2.86 0 0 0 1.8 1.92c2.34.61 3.8-.61 4.28-2.88 1.11-5.11.51-7.65-2-7.79a12.78 12.78 0 0 0-9.64 3.5c3.17.91 5.43 1.93 5.56 5.25Z"/>
        <path d="M143.51 65.33c-2.32-1-4 1.06-5.22 6.13-.56 2.26.22 4 2.59 4.45a2.86 2.86 0 0 0 2.46-1c1.59-2.91 4.06-2.81 7.3-2.25a12.68 12.68 0 0 0-7.13-7.33Z"/>
        <path d="M91.45 20.39a2.78 2.78 0 0 0 .44 2.46c1.51 1.62 3.23 1.29 4.71-.38 3.33-3.75 4.11-6.17 2.25-7.47a10.82 10.82 0 0 0-9.13-1.64c1.99 2.26 3.28 4.18 1.73 7.03Z"/>
        <path d="M13.34 57.94c-.79-2.3-1-5.07-2.55-6.75s-4.41-1.11-6.06.81S1.67 56 0 58.31c2.78.69 4.86 1.58 6.88 1.49 2.19-.11 4.31-1.2 6.46-1.86Z"/>
        <path d="M124.7 71.16c-.87 1.82.53 3.88 2.69 4.49s4.4 1 6.82 1.49c-.39-2.42-.26-4.25-1.08-5.93s-2.43-3-3.7-4.42c-1.63 1.43-3.86 2.55-4.73 4.37Z"/>
        <path d="M9 63.85c0 2.48.28 5 .43 7.25a48.32 48.32 0 0 0 4.45-2c1.71-.92 4.53-2 4.59-3.07.08-1.42-1.8-3.33-3.41-4.26-1.18-.7-3.34-.37-5-.13C9.6 61.75 9 63.09 9 63.85Z"/>
        <path d="M46.46 45.09c-1-1.14-2.5-2.42-3.81-2.42-1 0-2.21 1.72-3 2.89a17.87 17.87 0 0 0-1.46 3.6 45.45 45.45 0 0 0 5.22.34c1.31-.06 2.92-.22 3.77-1 .46-.41-.02-2.57-.72-3.41Z"/>
        <path d="M121.55 47.51c-1 0-2.21 1.72-3 2.89a17.28 17.28 0 0 0-1.45 3.6 45.25 45.25 0 0 0 5.2.34c1.31-.06 2.93-.22 3.77-1 .47-.41 0-2.57-.71-3.41-.96-1.14-2.51-2.42-3.81-2.42Z"/>
        <path d="M57.68 56.25c.87-1.12.62-3.62 0-5.19-.47-1.17-2.2-2-3.53-2.61-.4-.19-1.57.63-2 1.25-1.41 2-2.65 4.22-3.84 6.17 1.13.13 2.66.52 4.37.62s4.32.63 5-.24Z"/>
        <path d="M135.48 57.82c-.71 1.22-.14 3.67.68 5.15.61 1.14 2.43 1.68 3.83 2.14.42.13 1.47-.83 1.81-1.5 1.12-2.22 2.07-4.53 3-6.61q-2.16-.14-4.32-.06c-1.77.12-4.48-.06-5 .88Z"/>
        <path d="M130 37.2c-4.43 2.53-4.11 5.7-2.7 7.7 3.37.31 6.42 3.93 9.08.52 2.88-3.7-.26-6.87-1.81-10A32.51 32.51 0 0 0 130 37.2Z"/>
        <path d="M15.23 41.94c.44 1.39 2.89 4.54 3.82 4.72 2.87.58 3.41-2.47 4.87-4 .54-.54.18-2.09 0-3.17a9.52 9.52 0 0 0-2.36-2.58c-3.6-1.14-6.08-.54-9.69-1.64 2.87 2.28 2.3 3.27 3.36 6.67Z"/>
        <path d="M108 14.87c.42.6 2 .6 3.1.6a9.59 9.59 0 0 0 3-1.81c1.83-3.31 1.73-5.85 3.51-9.18-2.8 2.37-3.67 1.62-7.23 2-1.44.16-5 1.95-5.38 2.82-1.15 2.7 1.74 3.84 3 5.57Z"/>
        <path d="M86.51 12.77c.81-.17 1.41-1.66 1.89-2.66a5.22 5.22 0 0 0-.68-2.61c-2.68-2.91-5.3-4.61-8-7.5 1.28 3.48-.26 6.59-1 10.09a4.57 4.57 0 0 0 .84 3.41c2.34 2.04 4.66-.24 6.95-.73Z"/>
        <path d="M132.79 49.74c-.18-.19 5.06 6.26 8.57 4.41 2.24-1.23 4.54-2.35 5.81-3a48.36 48.36 0 0 1-4-4c-1.71-2-4.2-2.38-5.9-.82-1.38 1.26-2.98 2.28-4.48 3.41Z"/>
        <path d="M112.53 31.6c-1.53 4-2.15 6.51 2.39 6.51 2.37-1.63 6.33-.91 6.19-4.58-.11-4-3.87-4.35-6.58-5.56a26.71 26.71 0 0 0-2 3.63Z"/>
        <path d="M22.06 48.45c-4.33.87-4 5.06-4.87 8.26a30.53 30.53 0 0 0 4.36 1.55c4.68.93 6.47-1.56 6.68-3.83-2.23-2.31-2.17-6.77-6.17-5.98Z"/>
      </g>
    </g>
  </g>
</svg>
