<svg xmlns="http://www.w3.org/2000/svg" xml:space="preserve" viewBox="0 0 1000 1000">
  <path d="M467.75 269.47c-51.19 7.49-96.33 29.96-132.33 66.17-91.13 91.13-91.13 238.03 0 329.16 111.11 111.32 298.99 81.77 371.4-58.26 46.61-90.3 29.54-198.5-42.45-270.7-51.6-51.6-125.88-76.57-196.62-66.37zm76.78 36.41c4.99 4.99 5.41 7.07 5.41 21.43v15.81l12.07 4.79c6.66 2.5 12.9 4.58 14.15 4.58 1.04 0 6.66-4.79 12.28-10.4 8.53-8.53 11.44-10.4 17.48-10.4 6.66 0 9.99 2.7 34.96 27.47 25.18 25.18 27.67 28.3 27.67 34.96 0 6.24-1.87 9.15-11.03 18.31l-11.24 11.03 5.41 13.52 5.2 13.32h16.01c14.36 0 16.44.42 21.43 5.41l5.41 5.62v38.7c-.21 27.05-.83 39.74-2.7 42.03-4.58 6.03-11.44 8.12-25.8 8.12h-14.15l-4.79 12.07c-2.5 6.66-4.58 12.9-4.58 14.15 0 1.04 4.79 6.66 10.4 12.28 8.53 8.53 10.4 11.44 10.4 17.48 0 6.66-2.71 9.99-27.46 34.96-25.18 25.18-28.3 27.67-34.96 27.67-6.24 0-9.16-1.87-17.69-10.4-5.62-5.83-11.03-10.4-12.28-10.4-1.04 0-7.28 2.08-13.94 4.37l-12.28 4.58v16.02c0 14.57-.42 16.65-5.41 21.64l-5.62 5.41h-77.79l-5.62-5.41c-4.99-4.99-5.41-7.07-5.41-21.64v-16.02l-13.32-5.2-13.32-5.2-11.02 10.97c-9.15 9.36-12.28 11.24-18.52 11.24-6.45 0-9.78-2.7-34.75-27.47-25.18-25.17-27.67-28.3-27.67-34.95 0-6.24 1.87-9.16 10.4-17.69 5.83-5.62 10.4-11.24 10.4-12.28 0-1.25-2.08-7.49-4.58-14.15l-4.79-12.07h-14.15c-14.36 0-21.22-2.08-25.8-8.12-1.87-2.29-2.5-14.98-2.7-42.03v-38.7l5.41-5.62c4.99-4.79 7.07-5.41 21.43-5.41h15.81l5.41-13.32 5.41-13.32-11.01-11c-9.36-9.15-11.24-12.28-11.24-18.52 0-6.45 2.7-9.78 27.47-34.75 25.18-25.17 28.3-27.67 34.96-27.67 6.24 0 9.15 1.87 17.69 10.4 5.62 5.62 11.24 10.4 12.28 10.4 1.25 0 7.49-2.08 14.15-4.58l12.07-4.79v-16.65c0-9.15.83-17.69 1.66-19.14 3.33-5.2 13.11-6.66 49.52-6.66l37.66-.21 5.61 5.43z"/>
  <path d="M483.35 345.41c0 11.24-2.5 19.14-7.07 22.06-1.25.83-8.32 3.54-15.6 5.83-7.28 2.5-18.73 7.07-25.38 10.61-6.66 3.33-14.15 6.03-16.44 6.03-2.5 0-8.95-4.37-14.77-9.78l-10.4-9.78-11.65 11.86-11.86 11.65 9.78 10.4c11.65 12.48 12.07 16.85 3.75 32.04-3.33 5.83-8.11 17.27-10.61 24.97-6.24 19.14-9.78 22.26-26.43 22.26h-13.11v33.3h13.11c7.49.21 14.36 1.25 16.65 2.91 2.08 1.67 6.45 10.2 9.57 19.14 3.12 9.16 8.32 21.22 11.24 27.26 3.12 6.03 5.62 12.9 5.62 15.19 0 2.5-4.37 8.95-9.78 14.77l-9.78 10.4 11.86 11.65 11.65 11.86 10.4-9.78c12.28-11.44 17.27-12.07 30.38-4.37 4.99 2.91 16.85 7.91 26.22 11.24 9.36 3.33 17.27 6.24 17.48 6.66 3.33 4.16 5.2 11.86 5.2 21.22v11.65h33.27v-13.32c0-11.23.83-13.94 5.2-18.52 2.91-2.91 8.74-5.83 13.11-6.66 4.16-.62 15.4-4.99 24.76-9.57 9.36-4.37 18.93-8.11 21.43-8.11 2.29 0 8.95 4.37 14.77 9.78l10.4 9.78 11.65-11.86 11.86-11.65-9.78-10.4c-11.65-12.48-12.07-16.85-3.75-32.04 3.33-5.83 8.11-17.27 10.61-24.97 6.24-19.14 9.78-22.26 26.42-22.26h13.11v-33.3h-13.32c-11.44 0-13.94-.62-18.52-5.41-2.91-2.91-5.83-8.74-6.66-13.32-.83-4.37-5-15.19-9.57-24.14-4.37-8.95-8.12-18.52-8.12-21.22 0-2.71 3.96-8.95 9.78-15.19l9.78-10.4-11.86-11.65-11.65-11.86-10.4 9.78c-12.27 11.44-17.27 12.07-30.38 4.37-4.99-2.91-16.85-7.91-26.21-11.24-9.16-3.33-18.1-7.7-19.77-9.78-1.67-2.29-2.71-9.15-2.91-16.85v-12.9h-33.28v11.66zm48.28 84.48c16.44 7.7 29.55 20.39 37.66 36.83 6.03 12.48 6.66 15.4 6.66 33.5s-.63 21.02-6.66 33.5c-8.11 16.44-21.22 29.13-37.66 36.83-10.2 4.79-14.56 5.62-31.63 5.62-17.06 0-21.43-.83-31.63-5.62-44.94-21.02-59.71-78.03-30.17-116.53 9.16-11.86 19.56-19.77 33.92-25.8 17.06-7.07 42.24-6.45 59.51 1.67z"/>
  <path d="M482.11 459.43c-8.95 3.95-21.02 17.06-23.93 25.59-3.75 11.24-1.46 30.17 4.58 38.91 12.9 19.14 37.87 25.59 57.84 14.77 6.03-3.33 12.9-9.36 16.23-14.36 5.2-7.49 5.83-10.4 5.83-24.14 0-13.52-.83-16.65-5.62-23.93-9.15-13.32-18.73-18.52-34.75-19.14-8.53-.4-16.23.43-20.18 2.3z"/>
  <path d="M688.51 313.99c18.73 19.14 40.78 50.56 51.6 74.07 21.22 46.2 30.17 104.04 23.1 150.44-8.32 55.55-32.04 103.83-71.37 145.23-20.39 21.22-20.81 21.01 16.23 6.45 89.26-35.37 190.17-101.12 264.25-172.9L990 500.21l-17.69-17.27C892 405.33 777.56 333.14 685.18 301.51l-13.73-4.58 17.06 17.06z"/>
  <path d="M300.25 306.71c-32.04 12.07-100.91 47.02-132.96 67.62C115.7 407.42 66.8 445.28 28.73 482.11L10 500.21l17.69 17.07c37.66 36.41 89.89 77.19 137.74 107.78 33.29 21.22 93.63 52.22 126.5 65.13 36.83 14.36 36.41 14.56 17.89-4.37-88.01-89.47-100.7-227.83-30.79-334.16 5.41-7.91 17.89-23.3 28.09-33.92 10.2-10.61 17.69-19.35 16.85-19.35-1.04 0-11.65 3.74-23.72 8.32z"/>
</svg>
