<svg xmlns="http://www.w3.org/2000/svg" xmlns:xlink="http://www.w3.org/1999/xlink" viewBox="0 0 690 690">
    <use xlink:href="#a" width="690" height="690" transform="rotate(-45 346 346.19)"/>
    <use xlink:href="#b" id="a" width="690" height="690" transform="rotate(-45 346 346.19)"/>
    <use xlink:href="#c" id="b" width="690" height="690" transform="rotate(-45 346 346.19)"/>
    <g id="c" transform="translate(0 -.08)">
        <g id="d" fill-rule="evenodd" stroke="#000" stroke-width="2.25">
            <path fill="#fc0"
                  d="M318.56 208.52c.64-11.24 12.05-16.57 12.77-49.8l14.68-.75v117.8l-14.04.13c.25-21.92-3.12-45.45-13.4-67.38z"/>
            <path fill="#d4aa00"
                  d="M373.44 208.52c-.63-11.24-12.05-16.57-12.76-49.8l-14.68-.75v117.8l14.04.13c-.25-21.92 3.12-45.45 13.4-67.38z"/>
            <path fill="#fc0" stroke-linecap="round" stroke-linejoin="round"
                  d="M346 193.25c-5.51 12.53-14.3 13.31-26.77 13.55 12.52.9 22.34 5.25 26.77 13.48 4.44-8.23 14.26-12.57 26.78-13.48-12.46-.23-21.26-1.02-26.77-13.55z"/>
        </g>
        <use xlink:href="#d" width="690" height="690" transform="rotate(180 346 346.26)"/>
    </g>
    <g fill-rule="evenodd" stroke="#000">
        <g transform="scale(1 -1)">
            <circle cx="346.01" cy="-346.18" r="74.98" fill="#fc0" stroke-width="2.05"/>
            <circle cx="346.01" cy="-346.18" r="55.33" fill="#d4aa00" stroke-width="2"/>
        </g>
        <path fill="#fc0" stroke-width="2.25"
              d="M345.97 102.64c-134.44 0-243.51 109.07-243.51 243.51s109.07 243.58 243.51 243.58 243.58-109.14 243.58-243.58-109.14-243.51-243.58-243.51zm0 57.11c102.98 0 186.61 83.56 186.61 186.54 0 102.98-83.63 186.61-186.61 186.61-102.98 0-186.54-83.63-186.54-186.61 0-102.98 83.56-186.54 186.54-186.54z"/>
        <circle cx="346.01" cy="346.18" r="201.31" fill="none" stroke-width="2"/>
        <g transform="translate(.06 -.03)">
            <ellipse cx="-155.96" cy="185.2" fill="#ffe680" stroke-width="1.86" rx="24.91" ry="25.99"
                     transform="matrix(1.51 0 0 -1.45 581.54 614.29)"/>
            <g fill-opacity=".75" stroke-width="2.25">
                <path fill="#fea"
                      d="M354.92 357.91c-.2-7.07-6.24-9.92-9.36-10.93-.02.16-.05.3-.06.46-28.47 18.73-29-25.96-4.13-38.74a37.97 37.97 0 0 0-28.15 56.86c16.86 16.81 38.08 13 41.43-4.42.23-1.15.3-2.24.27-3.23z"/>
                <path fill="#fd5"
                      d="M383.78 346.37a37.97 37.97 0 0 0-42.54-37.67c-24.86 12.78-24.34 57.46 4.13 38.74 3.36-37.28 47.77-11.3 31.82 20.3a37.75 37.75 0 0 0 6.6-21.37z"/>
            </g>
        </g>
    </g>
    <g id="f" transform="translate(0 -.53)">
        <g id="e" fill-rule="evenodd" stroke="#000" transform="translate(1.57 -.02)">
            <ellipse cx="142.55" cy="38.98" fill="#d4aa00" stroke-width=".94" rx="9.27" ry="8.46"
                     transform="matrix(2.13 0 0 3.16 40.14 -86.97)"/>
            <g stroke-linejoin="round">
                <path fill="#fc0" stroke-width="2.27"
                      d="M361.85 23.56c-3.34-8.38-9.91-14.06-17.44-14.06-7.53 0-14.03 5.67-17.38 14.06 9.76 1.66 17.31 12.88 17.38 26.52.07-13.67 7.66-24.9 17.44-26.52z"/>
                <g stroke-width="2.14">
                    <path fill="#fc0" d="m344.44 54.88-13.4.75c-.62 31.85-10.13 38.1-11.44 48.44l24.84-1.4z"/>
                    <path fill="#d4aa00" d="m344.44 54.88 13.4.75c.62 31.85 10.14 38.1 11.45 48.44l-24.85-1.4z"/>
                </g>
                <path fill="#fc0" stroke-linecap="round" stroke-width="2.14"
                      d="M344.44 90.29c-7.33 15.09-13.58 11.67-24.64 13.42 10.28.96 18.99 4.08 24.64 13.43 5.65-9.35 14.36-12.47 24.64-13.43-11.05-1.75-17.31 1.67-24.64-13.42z"/>
            </g>
        </g>
        <use xlink:href="#e" width="690" height="690" transform="rotate(180 346 346.71)"/>
    </g>
    <use xlink:href="#f" id="g" width="690" height="690" transform="rotate(-45 346 346.19)"/>
    <use xlink:href="#g" id="h" width="690" height="690" transform="rotate(-45 346 346.19)"/>
    <use xlink:href="#h" width="690" height="690" transform="rotate(-45 346 346.19)"/>
</svg>